<svg width="304" height="373" viewBox="0 0 304 373" fill="none" xmlns="http://www.w3.org/2000/svg">
    <style>
        <![CDATA[
        .the-box:hover .goback-text {
            fill: #e69635;
        }

        .goback-text{
          fill:#fafafa
        }

        ]]>
    </style>
    <g opacity="0.5">
        <path
            d="M68.221 197.381H82.4487V226.284H68.221V290.979H55.1203V226.284H8.42212V205.42L54.345 12.2911H68.221V197.381ZM23.213 197.381H55.1203V60.7166L53.5706 68.3736L23.213 197.381Z"
            fill="black" />
        <path
            d="M182.691 172.116C182.691 213.587 180.085 244.403 174.873 264.565C169.66 284.726 161.514 294.807 150.432 294.807C139.491 294.807 131.391 284.95 126.132 265.235C120.872 245.52 118.15 216.075 117.961 176.901V129.624C117.961 88.6626 120.568 58.2286 125.78 38.3226C130.992 18.4161 139.162 8.46295 150.29 8.46295C161.326 8.46295 169.449 18.0652 174.662 37.2696C179.874 56.4736 182.55 86.1106 182.691 126.178V172.116ZM169.66 123.69C169.66 93.7026 168.111 71.8506 165.012 58.1326C161.913 44.4156 157.006 37.5566 150.29 37.5566C143.623 37.5566 138.763 44.3836 135.711 58.0376C132.659 71.6906 131.086 92.6816 130.992 121.01V177.667C130.992 207.781 132.6 230.016 135.816 244.372C139.033 258.727 143.904 265.905 150.432 265.905C156.865 265.905 161.642 259.142 164.766 245.616C167.888 232.09 169.52 210.78 169.66 181.686V123.69Z"
            fill="black" />
        <path
            d="M292.853 197.19V226.284H218.757V205.42L264.679 12.2911H275.316L263.905 68.1816L233.547 197.19H292.853ZM278.555 12.2911V290.979H265.525V12.2911H278.555Z"
            fill="black" />
    </g>
    <path
        d="M189.419 157.419C189.419 135.879 171.928 118.419 150.351 118.419C128.775 118.419 111.284 135.879 111.284 157.419C111.284 178.958 128.775 196.419 150.351 196.419C171.928 196.419 189.419 178.958 189.419 157.419Z"
        fill="#F27405" />
    <path
        d="M189.419 157.419C189.419 135.879 171.928 118.419 150.351 118.419C128.775 118.419 111.284 135.879 111.284 157.419C111.284 178.958 128.775 196.419 150.351 196.419C171.928 196.419 189.419 178.958 189.419 157.419Z"
        stroke="black" stroke-width="2" />
    <path
        d="M147.425 121.079L136.882 124.91C133.555 126.119 131.839 129.791 133.05 133.113C134.261 136.434 137.94 138.147 141.268 136.938L151.81 133.107C155.138 131.898 156.853 128.226 155.642 124.904C154.431 121.583 150.752 119.87 147.425 121.079Z"
        fill="#F69E50" />
    <g filter="url(#filter0_dd_0_1)">
        <path
            d="M181.393 169.607L183.158 168.129C193.266 159.662 194.584 144.619 186.103 134.528L180.758 128.17C172.277 118.08 157.207 116.764 147.1 125.231L145.335 126.709C135.227 135.176 133.908 150.219 142.39 160.31L147.734 166.668C156.216 176.758 171.285 178.074 181.393 169.607Z"
            fill="white" fill-opacity="0.01" />
    </g>
    <mask id="mask0_0_1" style="mask-type:alpha" maskUnits="userSpaceOnUse" x="88" y="47" width="47"
        height="79">
        <mask id="mask1_0_1" style="mask-type:luminance" maskUnits="userSpaceOnUse" x="4" y="0"
            width="211" height="171">
            <path
                d="M172.219 0.879045L4.00781 93.9586L46.7458 170.926L214.957 77.8468L172.219 0.879045Z"
                fill="white" />
        </mask>
        <g mask="url(#mask1_0_1)">
            <path d="M88.1147 47.4206L129.169 125.316L134.215 122.523" fill="black" />
        </g>
    </mask>
    <g mask="url(#mask0_0_1)">
        <path
            d="M133.669 22.2109L42.5585 72.6266C21.2675 84.4079 13.575 111.188 25.3768 132.442L25.3768 132.443C37.1786 153.697 64.0056 161.376 85.2965 149.594L176.407 99.1788C197.698 87.3975 205.39 60.617 193.588 39.3629C181.786 18.1088 154.96 10.4296 133.669 22.2109Z"
            fill="url(#paint0_linear_0_1)" />
    </g>
    <mask id="mask2_0_1" style="mask-type:alpha" maskUnits="userSpaceOnUse" x="163" y="44"
        width="43" height="71">
        <mask id="mask3_0_1" style="mask-type:luminance" maskUnits="userSpaceOnUse" x="101" y="16"
            width="203" height="116">
            <path
                d="M286.039 16.5762L101.156 69.4986L118.825 131.012L303.708 78.0892L286.039 16.5762Z"
                fill="white" />
        </mask>
        <g mask="url(#mask3_0_1)">
            <path
                d="M188.052 44.6246L170.027 72.4186L205.409 56.2996L177.991 114.076L171.739 113.203L197.403 63.2506L163.34 76.9956"
                fill="black" />
        </g>
    </mask>
    <g mask="url(#mask2_0_1)">
        <path
            d="M255.229 25.3955L131.966 60.6793C114.95 65.5501 105.111 83.2687 109.991 100.255C114.87 117.241 132.619 127.063 149.635 122.192L272.898 86.9085C289.914 82.0377 299.752 64.319 294.873 47.3327C289.994 30.3464 272.244 20.5248 255.229 25.3955Z"
            fill="url(#paint1_linear_0_1)" />
    </g>
    <path
        d="M128.639 135.707L121.376 139.088C119.371 140.022 118.503 142.402 119.438 144.404C120.374 146.406 122.758 147.272 124.763 146.339L132.026 142.958C134.032 142.024 134.9 139.644 133.964 137.642C133.029 135.64 130.645 134.774 128.639 135.707Z"
        fill="#F69E50" />
    <path
        d="M91.7813 53.1765C92.9549 52.0049 92.9549 50.1055 91.7813 48.9339C90.6076 47.7623 88.7049 47.7623 87.5312 48.9339C86.3576 50.1055 86.3576 52.0049 87.5312 53.1765C88.7049 54.3481 90.6076 54.3481 91.7813 53.1765Z"
        fill="#979797" stroke="black" stroke-width="2" />
    <path
        d="M190.861 59.9786C190.861 58.3217 189.516 56.9786 187.856 56.9786C186.197 56.9786 184.851 58.3217 184.851 59.9786C184.851 61.6354 186.197 62.9786 187.856 62.9786C189.516 62.9786 190.861 61.6354 190.861 59.9786Z"
        fill="#979797" stroke="black" stroke-width="2" />
    <g filter="url(#filter1_i_0_1)">
        <path
            d="M271.561 149.419H29.1415C20.8429 149.419 14.1155 156.134 14.1155 164.419V278.419C14.1155 286.703 20.8429 293.419 29.1415 293.419H271.561C279.86 293.419 286.588 286.703 286.588 278.419V164.419C286.588 156.134 279.86 149.419 271.561 149.419Z"
            fill="#D36604" />
        <path
            d="M271.561 150.419H29.1415C21.3961 150.419 15.1172 156.687 15.1172 164.419V278.419C15.1172 286.151 21.3961 292.419 29.1415 292.419H271.561C279.307 292.419 285.586 286.151 285.586 278.419V164.419C285.586 156.687 279.307 150.419 271.561 150.419Z"
            stroke="#1D0E01" stroke-width="2" />
        <mask id="mask4_0_1" style="mask-type:luminance" maskUnits="userSpaceOnUse" x="19" y="155"
            width="13" height="13">
            <path d="M31.5555 155.419H19.5347V167.419H31.5555V155.419Z" fill="white" />
        </mask>
        <g mask="url(#mask4_0_1)">
            <path
                d="M23.9863 159.863C22.053 161.794 21.1504 164.457 21.512 167.169L19.6298 167.419C19.19 164.117 20.2889 160.874 22.644 158.523C24.9991 156.172 28.2477 155.075 31.5554 155.514L31.305 157.393C28.5873 157.033 25.9207 157.933 23.9863 159.863Z"
                fill="black" />
        </g>
        <g filter="url(#filter2_d_0_1)">
            <path
                d="M25.5879 168.611C25.5879 164.193 29.1758 160.611 33.6018 160.611H189.873C194.298 160.611 197.886 164.193 197.886 168.611V274.209C197.886 278.627 194.298 282.209 189.873 282.209H33.6018C29.1758 282.209 25.5879 278.627 25.5879 274.209V168.611Z"
                fill="url(#paint2_linear_0_1)" />
            <path
                d="M25.5879 255.782H197.886V274.212C197.886 278.63 194.298 282.212 189.873 282.212H33.6018C29.1758 282.212 25.5879 278.63 25.5879 274.212V255.782Z"
                fill="url(#paint3_linear_0_1)" />
            <path
                d="M25.5879 168.611C25.5879 164.193 29.1758 160.611 33.6018 160.611H189.873C194.298 160.611 197.886 164.193 197.886 168.611V243.881H25.5879V168.611Z"
                fill="url(#paint4_linear_0_1)" />
            <path
                d="M184.821 159.419H38.5678C30.2691 159.419 23.5417 166.134 23.5417 174.419V268.419C23.5417 276.703 30.2691 283.419 38.5678 283.419H184.821C193.12 283.419 199.847 276.703 199.847 268.419V174.419C199.847 166.134 193.12 159.419 184.821 159.419Z"
                fill="white" fill-opacity="0.01" />
            <path
                d="M189.83 159.619H33.5591C28.5799 159.619 24.5435 163.648 24.5435 168.619V274.209C24.5435 279.179 28.5799 283.209 33.5591 283.209H189.83C194.809 283.209 198.845 279.179 198.845 274.209V168.619C198.845 163.648 194.809 159.619 189.83 159.619Z"
                stroke="#1D0E01" stroke-width="2" />
            <path
                d="M143.019 214.419H80.36C77.5938 214.419 75.3513 216.657 75.3513 219.419V223.419C75.3513 226.18 77.5938 228.419 80.36 228.419H143.019C145.785 228.419 148.027 226.18 148.027 223.419V219.419C148.027 216.657 145.785 214.419 143.019 214.419Z"
                fill="black" />
            <path
                d="M86.6649 225.419H84.9048L81.4769 219.806V225.419H79.7158V216.888H81.4769L84.9098 222.513V216.888H86.6649V225.419ZM95.2227 221.347C95.2227 222.187 95.0744 222.923 94.7769 223.556C94.4794 224.189 94.0537 224.677 93.5007 225.021C92.9467 225.364 92.3116 225.536 91.5954 225.536C90.8872 225.536 90.2551 225.366 89.7001 225.026C89.1442 224.687 88.7134 224.201 88.4089 223.57C88.1033 222.94 87.9491 222.214 87.9451 221.394V220.972C87.9451 220.132 88.0963 219.393 88.3999 218.754C88.7034 218.115 89.1311 217.625 89.6851 217.283C90.239 216.941 90.8722 216.771 91.5844 216.771C92.2956 216.771 92.9287 216.941 93.4827 217.283C94.0366 217.625 94.4654 218.115 94.7679 218.754C95.0714 219.393 95.2227 220.13 95.2227 220.966V221.347ZM93.4386 220.96C93.4386 220.065 93.2783 219.386 92.9578 218.921C92.6362 218.456 92.1784 218.224 91.5844 218.224C90.9934 218.224 90.5376 218.453 90.216 218.912C89.8955 219.371 89.7332 220.044 89.7292 220.931V221.347C89.7292 222.218 89.8894 222.894 90.21 223.374C90.5316 223.855 90.9934 224.095 91.5954 224.095C92.1864 224.095 92.6402 223.863 92.9578 223.4C93.2743 222.938 93.4346 222.263 93.4386 221.376V220.96ZM102.437 218.312H99.8186V225.419H98.0576V218.312H95.4751V216.888H102.437V218.312ZM111.223 221.933H107.843V225.419H106.082V216.888H111.646V218.312H107.843V220.515H111.223V221.933ZM119.687 221.347C119.687 222.187 119.539 222.923 119.241 223.556C118.944 224.189 118.518 224.677 117.965 225.021C117.411 225.364 116.776 225.536 116.06 225.536C115.352 225.536 114.719 225.366 114.165 225.026C113.609 224.687 113.178 224.201 112.872 223.57C112.568 222.94 112.413 222.214 112.409 221.394V220.972C112.409 220.132 112.561 219.393 112.864 218.754C113.167 218.115 113.596 217.625 114.149 217.283C114.703 216.941 115.336 216.771 116.048 216.771C116.76 216.771 117.393 216.941 117.947 217.283C118.501 217.625 118.929 218.115 119.232 218.754C119.536 219.393 119.687 220.13 119.687 220.966V221.347ZM117.903 220.96C117.903 220.065 117.743 219.386 117.422 218.921C117.101 218.456 116.643 218.224 116.048 218.224C115.458 218.224 115.001 218.453 114.68 218.912C114.36 219.371 114.198 220.044 114.194 220.931V221.347C114.194 222.218 114.354 222.894 114.674 223.374C114.996 223.855 115.458 224.095 116.06 224.095C116.651 224.095 117.105 223.863 117.422 223.4C117.739 222.938 117.899 222.263 117.903 221.376V220.96ZM127.435 216.888V222.507C127.435 223.44 127.143 224.179 126.558 224.722C125.973 225.265 125.174 225.536 124.16 225.536C123.162 225.536 122.37 225.273 121.783 224.745C121.196 224.218 120.896 223.493 120.885 222.571V216.888H122.645V222.519C122.645 223.077 122.779 223.484 123.048 223.74C123.315 223.996 123.686 224.124 124.16 224.124C125.15 224.124 125.652 223.605 125.668 222.565V216.888H127.435ZM135.829 225.419H134.068L130.64 219.806V225.419H128.879V216.888H130.64L134.074 222.513V216.888H135.829V225.419ZM137.367 225.419V216.888H139.996C140.748 216.888 141.42 217.057 142.012 217.395C142.605 217.732 143.068 218.213 143.4 218.836C143.733 219.459 143.899 220.167 143.899 220.96V221.353C143.899 222.146 143.736 222.851 143.409 223.468C143.083 224.085 142.622 224.564 142.027 224.903C141.432 225.243 140.761 225.415 140.013 225.419H137.367ZM139.127 218.312V224.007H139.978C140.667 224.007 141.193 223.782 141.557 223.333C141.922 222.884 142.107 222.241 142.115 221.405V220.954C142.115 220.087 141.935 219.43 141.575 218.982C141.214 218.535 140.688 218.312 139.996 218.312H139.127Z"
                fill="white" />
        </g>
        <path
            d="M199.847 284.419C199.847 283.867 200.296 283.419 200.849 283.419C201.402 283.419 201.851 283.867 201.851 284.419V291.419H199.847V284.419Z"
            fill="black" />
        <path
            d="M203.443 276.419C203.443 275.867 203.892 275.419 204.445 275.419C204.998 275.419 205.447 275.867 205.447 276.419V291.419H203.443V276.419Z"
            fill="black" />
        <path
            d="M207.04 284.419C207.04 283.867 207.489 283.419 208.042 283.419C208.594 283.419 209.043 283.867 209.043 284.419V291.419H207.04V284.419Z"
            fill="black" />
        <g filter="url(#filter3_d_0_1)">
            <path
                d="M267.144 157.419H219.061C213.528 157.419 209.043 161.896 209.043 167.419V275.419C209.043 280.941 213.528 285.419 219.061 285.419H267.144C272.676 285.419 277.161 280.941 277.161 275.419V167.419C277.161 161.896 272.676 157.419 267.144 157.419Z"
                fill="#E69635" />
            <path
                d="M267.144 158.419H219.061C214.081 158.419 210.045 162.448 210.045 167.419V275.419C210.045 280.389 214.081 284.419 219.061 284.419H267.144C272.123 284.419 276.159 280.389 276.159 275.419V167.419C276.159 162.448 272.123 158.419 267.144 158.419Z"
                stroke="#1D0E01" stroke-width="2" />
            <g filter="url(#filter4_ddi_0_1)">
                <path
                    d="M243.693 169.009H242.501C235.53 169.009 229.879 174.65 229.879 181.609C229.879 188.567 235.53 194.209 242.501 194.209H243.693C250.664 194.209 256.315 188.567 256.315 181.609C256.315 174.65 250.664 169.009 243.693 169.009Z"
                    fill="#7F5934" />
                <path
                    d="M243.693 170.009H242.501C236.084 170.009 230.881 175.202 230.881 181.609C230.881 188.015 236.084 193.209 242.501 193.209H243.693C250.111 193.209 255.313 188.015 255.313 181.609C255.313 175.202 250.111 170.009 243.693 170.009Z"
                    stroke="black" stroke-width="2" />
                <path
                    d="M242.995 189.144C243.317 188.844 243.334 188.341 243.034 188.02C242.734 187.699 242.23 187.681 241.909 187.981L238.392 191.254C238.071 191.554 238.053 192.057 238.353 192.378C238.653 192.699 239.157 192.717 239.478 192.417L242.995 189.144Z"
                    fill="black" />
                <path
                    d="M252.839 173.779L251.146 172.089L234.146 189.059L235.839 190.749L252.839 173.779Z"
                    fill="black" />
                <path
                    d="M248.685 187.924C249.007 187.624 249.024 187.121 248.724 186.8C248.424 186.479 247.92 186.461 247.599 186.761L242.317 191.678C241.995 191.977 241.977 192.481 242.277 192.802C242.577 193.123 243.081 193.14 243.403 192.841L248.685 187.924Z"
                    fill="black" />
            </g>
            <g filter="url(#filter5_ddi_0_1)">
                <path
                    d="M243.693 206.209H242.501C235.53 206.209 229.879 211.85 229.879 218.809C229.879 225.767 235.53 231.409 242.501 231.409H243.693C250.664 231.409 256.315 225.767 256.315 218.809C256.315 211.85 250.664 206.209 243.693 206.209Z"
                    fill="#7F5934" />
                <path
                    d="M243.693 207.209H242.501C236.084 207.209 230.881 212.402 230.881 218.809C230.881 225.215 236.084 230.409 242.501 230.409H243.693C250.111 230.409 255.313 225.215 255.313 218.809C255.313 212.402 250.111 207.209 243.693 207.209Z"
                    stroke="black" stroke-width="2" />
                <path
                    d="M245.331 225.944C244.863 225.477 244.105 225.477 243.638 225.944C243.17 226.41 243.17 227.167 243.638 227.634L246.471 230.462C246.939 230.929 247.697 230.929 248.164 230.462C248.632 229.995 248.632 229.239 248.164 228.772L245.331 225.944Z"
                    fill="black" />
                <path
                    d="M235.84 209.289L234.147 210.979L251.147 227.949L252.84 226.259L235.84 209.289Z"
                    fill="black" />
            </g>
            <g filter="url(#filter6_d_0_1)">
                <path
                    d="M233.886 248.614C233.886 245.744 231.556 243.419 228.682 243.419C225.808 243.419 223.478 245.744 223.478 248.614C223.478 251.483 225.808 253.809 228.682 253.809C231.556 253.809 233.886 251.483 233.886 248.614Z"
                    fill="#7F5934" />
            </g>
            <path
                d="M232.885 248.614C232.885 246.297 231.003 244.419 228.682 244.419C226.361 244.419 224.48 246.297 224.48 248.614C224.48 250.93 226.361 252.809 228.682 252.809C231.003 252.809 232.885 250.93 232.885 248.614Z"
                stroke="black" stroke-width="2" />
            <g filter="url(#filter7_d_0_1)">
                <path
                    d="M248.301 248.614C248.301 245.744 245.971 243.419 243.097 243.419C240.223 243.419 237.893 245.744 237.893 248.614C237.893 251.483 240.223 253.809 243.097 253.809C245.971 253.809 248.301 251.483 248.301 248.614Z"
                    fill="#7F5934" />
            </g>
            <path
                d="M247.3 248.614C247.3 246.297 245.418 244.419 243.097 244.419C240.776 244.419 238.895 246.297 238.895 248.614C238.895 250.93 240.776 252.809 243.097 252.809C245.418 252.809 247.3 250.93 247.3 248.614Z"
                stroke="black" stroke-width="2" />
            <g filter="url(#filter8_d_0_1)">
                <path
                    d="M262.716 248.614C262.716 245.744 260.386 243.419 257.512 243.419C254.638 243.419 252.308 245.744 252.308 248.614C252.308 251.483 254.638 253.809 257.512 253.809C260.386 253.809 262.716 251.483 262.716 248.614Z"
                    fill="#7F5934" />
            </g>
            <path
                d="M261.714 248.614C261.714 246.297 259.833 244.419 257.512 244.419C255.191 244.419 253.31 246.297 253.31 248.614C253.31 250.93 255.191 252.809 257.512 252.809C259.833 252.809 261.714 250.93 261.714 248.614Z"
                stroke="black" stroke-width="2" />
            <path d="M262.716 261.809H223.478V263.809H262.716V261.809Z" fill="#171717" />
            <path d="M262.716 271.809H223.478V273.809H262.716V271.809Z" fill="#171717" />
        </g>
    </g>
    <path d="M79.6387 292.029H49.5867V306.029H79.6387V292.029Z" fill="#4D4D4D" stroke="#171717"
        stroke-width="2" />
    <path d="M251.116 292.029H221.064V306.029H251.116V292.029Z" fill="#4D4D4D" stroke="#171717"
        stroke-width="2" />
    <path d="M290.594 305.419H10.1084V307.809H290.594V305.419Z" fill="#171717" />
    <g class="the-box" filter="url(#filter9_i_0_1)">
        <rect x="0.313477" y="307.937" width="302.092" height="64.8735" rx="11"
            fill="#2D2D2D" />
        <path
            d="M28.7558 351.205C28.3059 351.998 27.7507 352.691 27.0902 353.282C26.4297 353.874 25.7213 354.364 24.9651 354.754C24.2088 355.144 23.4334 355.433 22.6389 355.622C21.8444 355.823 21.0881 355.924 20.3702 355.924C18.9822 355.924 17.7042 355.575 16.5364 354.875C15.3685 354.176 14.3586 353.215 13.5066 351.991C12.6642 350.755 12.0037 349.302 11.5251 347.635C11.0464 345.968 10.8071 344.173 10.8071 342.251C10.8071 340.785 10.9268 339.353 11.1661 337.955C11.4054 336.543 11.7452 335.219 12.1856 333.982C12.6355 332.732 13.1811 331.589 13.8225 330.554C14.4639 329.505 15.1914 328.604 16.0051 327.851C16.8187 327.098 17.709 326.513 18.6758 326.097C19.6427 325.68 20.6765 325.471 21.7774 325.471C22.189 325.471 22.6293 325.498 23.0984 325.552C23.5675 325.592 24.0317 325.673 24.4912 325.794C24.9603 325.902 25.415 326.056 25.8553 326.258C26.2957 326.46 26.6977 326.708 27.0615 327.004L26.6594 334.708C26.1234 334.426 25.5681 334.237 24.9938 334.143C24.429 334.036 23.8738 333.982 23.3281 333.982C22.5623 333.982 21.8444 334.15 21.1743 334.486C20.5138 334.809 19.9346 335.279 19.4369 335.898C18.9487 336.516 18.561 337.269 18.2738 338.157C17.9866 339.044 17.843 340.046 17.843 341.162C17.843 341.861 17.91 342.54 18.044 343.198C18.1781 343.844 18.3791 344.422 18.6471 344.933C18.9247 345.43 19.2646 345.834 19.6666 346.143C20.0782 346.452 20.5521 346.607 21.0881 346.607C21.4519 346.607 21.8252 346.54 22.2081 346.405C22.6006 346.271 22.9357 346.042 23.2133 345.719L23.2707 344.146L19.8246 344.066L19.9969 338.015C21.4232 337.948 22.8495 337.894 24.2758 337.854C25.7022 337.8 27.1381 337.733 28.5835 337.652L28.7558 351.205Z"
            class="goback-text" />
        <path
            d="M47.6091 339.871C47.6091 341.094 47.5086 342.277 47.3076 343.42C47.1066 344.55 46.8146 345.612 46.4317 346.607C46.0584 347.602 45.5989 348.516 45.0532 349.35C44.5172 350.17 43.9093 350.876 43.2297 351.467C42.5596 352.059 41.8273 352.523 41.0327 352.859C40.2382 353.181 39.3958 353.343 38.5056 353.343C37.644 353.343 36.8208 353.188 36.0358 352.879C35.2604 352.57 34.5329 352.139 33.8533 351.588C33.1736 351.023 32.5562 350.351 32.001 349.571C31.4553 348.778 30.9863 347.904 30.5938 346.95C30.2109 345.982 29.9093 344.946 29.6892 343.844C29.4786 342.741 29.3733 341.592 29.3733 340.395C29.3733 339.226 29.4738 338.083 29.6748 336.967C29.8758 335.837 30.163 334.775 30.5363 333.78C30.9192 332.785 31.3787 331.871 31.9148 331.038C32.4509 330.204 33.0492 329.485 33.7097 328.88C34.3798 328.275 35.1025 327.804 35.8779 327.468C36.6533 327.132 37.4717 326.964 38.3333 326.964C39.7213 326.964 40.9849 327.266 42.124 327.871C43.2727 328.476 44.2491 329.344 45.0532 330.473C45.8669 331.589 46.4939 332.947 46.9343 334.547C47.3842 336.133 47.6091 337.908 47.6091 339.871ZM41.2338 340.395C41.2338 339.817 41.1715 339.259 41.0471 338.721C40.9322 338.17 40.7599 337.686 40.5302 337.269C40.3004 336.839 40.0132 336.496 39.6686 336.241C39.3336 335.972 38.9459 335.837 38.5056 335.837C38.0556 335.837 37.6536 335.952 37.2994 336.18C36.9452 336.409 36.6389 336.725 36.3804 337.128C36.1315 337.518 35.9401 337.982 35.8061 338.52C35.6721 339.044 35.605 339.602 35.605 340.194C35.605 340.758 35.6625 341.323 35.7774 341.888C35.8922 342.452 36.0645 342.963 36.2943 343.42C36.524 343.877 36.8064 344.247 37.1415 344.53C37.4861 344.812 37.8833 344.953 38.3333 344.953C38.7832 344.953 39.1852 344.832 39.5394 344.59C39.9032 344.335 40.2095 343.998 40.4584 343.582C40.7073 343.151 40.8987 342.661 41.0327 342.109C41.1668 341.558 41.2338 340.987 41.2338 340.395Z"
            class="goback-text" />
        <path
            d="M71.0717 348.139C71.0717 349.255 70.9233 350.217 70.6265 351.023C70.3394 351.83 69.9517 352.516 69.4635 353.08C68.9753 353.645 68.4105 354.109 67.7691 354.472C67.1373 354.822 66.4768 355.097 65.7876 355.299C65.0983 355.501 64.4043 355.635 63.7055 355.702C63.0163 355.769 62.3701 355.803 61.7671 355.803C61.1736 355.803 60.5561 355.769 59.9148 355.702C59.283 355.648 58.6512 355.548 58.0194 355.4C57.3876 355.252 56.7654 355.057 56.1527 354.815C55.5401 354.559 54.9609 354.243 54.4153 353.867L54.3866 327.891C54.9226 327.582 55.4922 327.307 56.0953 327.065C56.6984 326.809 57.311 326.601 57.9332 326.439C58.565 326.265 59.192 326.137 59.8143 326.056C60.4365 325.962 61.0396 325.915 61.6235 325.915C62.3031 325.915 62.9876 325.976 63.6768 326.097C64.3756 326.218 65.0457 326.419 65.6871 326.702C66.3284 326.984 66.9267 327.354 67.4819 327.811C68.0371 328.254 68.5206 328.806 68.9322 329.465C69.3534 330.123 69.6789 330.89 69.9086 331.764C70.1479 332.638 70.2676 333.646 70.2676 334.789C70.2676 335.542 70.191 336.247 70.0378 336.906C69.8847 337.565 69.6645 338.157 69.3773 338.681C69.0901 339.205 68.7407 339.656 68.3291 340.032C67.9175 340.395 67.4532 340.664 66.9363 340.839C67.5585 341.067 68.1233 341.404 68.6307 341.847C69.1476 342.291 69.5831 342.829 69.9373 343.461C70.3011 344.093 70.5787 344.805 70.7701 345.598C70.9712 346.392 71.0717 347.239 71.0717 348.139ZM63.7773 336.644C63.7773 336.254 63.7199 335.925 63.605 335.656C63.4901 335.374 63.3466 335.145 63.1742 334.97C63.0115 334.795 62.8296 334.668 62.6286 334.587C62.4372 334.506 62.2648 334.466 62.1117 334.466C61.9202 334.466 61.7336 334.506 61.5517 334.587C61.3698 334.668 61.1927 334.762 61.0204 334.869L60.9343 339.347C61.1544 339.347 61.4272 339.32 61.7527 339.266C62.0782 339.212 62.3893 339.098 62.686 338.923C62.9924 338.735 63.2508 338.466 63.4614 338.116C63.672 337.753 63.7773 337.263 63.7773 336.644ZM61.7384 343.219C61.4607 343.219 61.1927 343.259 60.9343 343.34L60.8768 347.938C61.0204 347.978 61.1592 348.018 61.2932 348.059C61.4368 348.086 61.5756 348.099 61.7096 348.099C61.9107 348.099 62.1308 348.072 62.3701 348.018C62.6095 347.951 62.8344 347.83 63.045 347.655C63.2556 347.467 63.4279 347.218 63.5619 346.909C63.7055 346.6 63.7773 346.19 63.7773 345.679C63.7773 345.168 63.7055 344.751 63.5619 344.429C63.4279 344.106 63.2604 343.857 63.0594 343.682C62.8584 343.494 62.6382 343.373 62.3989 343.319C62.1595 343.252 61.9394 343.219 61.7384 343.219Z"
            class="goback-text" />
        <path
            d="M89.9537 353.585L82.8317 354.875L81.9701 350.318H78.6963L77.9783 354.875L70.6553 353.867L76.3701 327.004L84.3537 326.439L89.9537 353.585ZM81.4532 344.146L80.3619 337.128L79.2994 344.146H81.4532Z"
            class="goback-text" />
        <path
            d="M103.58 327.77L103.063 336.281C102.786 336.174 102.513 336.1 102.245 336.059C101.977 336.019 101.704 335.999 101.427 335.999C100.747 335.999 100.096 336.12 99.4737 336.362C98.861 336.604 98.3154 336.973 97.8368 337.471C97.3677 337.968 96.9896 338.6 96.7024 339.367C96.4248 340.12 96.286 341.014 96.286 342.049C96.286 342.802 96.3626 343.461 96.5157 344.025C96.6785 344.577 96.9034 345.04 97.1906 345.417C97.4874 345.78 97.8416 346.056 98.2532 346.244C98.6744 346.432 99.1387 346.526 99.646 346.526C100 346.526 100.364 346.479 100.737 346.385C101.111 346.277 101.484 346.136 101.857 345.961C102.231 345.787 102.59 345.585 102.934 345.356C103.279 345.128 103.6 344.886 103.896 344.63L103.667 354.109C103.293 354.378 102.891 354.62 102.46 354.835C102.03 355.037 101.584 355.211 101.125 355.359C100.675 355.521 100.22 355.642 99.7609 355.722C99.311 355.803 98.8802 355.843 98.4686 355.843C97.1093 355.843 95.8696 355.487 94.7496 354.775C93.6392 354.062 92.6819 353.094 91.8778 351.87C91.0833 350.634 90.4658 349.202 90.0255 347.575C89.5852 345.948 89.365 344.214 89.365 342.372C89.365 340.167 89.5852 338.11 90.0255 336.2C90.4754 334.291 91.1311 332.638 91.9927 331.239C92.8638 329.828 93.9359 328.725 95.2091 327.932C96.4918 327.125 97.9612 326.722 99.6173 326.722C100.278 326.722 100.948 326.796 101.628 326.944C102.307 327.091 102.958 327.367 103.58 327.77Z"
            class="goback-text" />
        <path
            d="M122.606 329.263L116.259 339.871L122.089 353.746L115.426 355.4L111.061 347.091L110.832 354.996L104.858 355.319L105.318 326.439L112.009 326.964L111.492 335.273L115.656 326.843L122.606 329.263Z"
            class="goback-text" />
        <path
            d="M143.627 326.883L143.484 335.434L139.205 335.676L138.688 354.391L132.629 354.835L132.083 336.12L127.804 336.442L127.976 326.923L143.627 326.883Z"
            class="goback-text" />
        <path
            d="M161.906 339.871C161.906 341.094 161.806 342.277 161.605 343.42C161.404 344.55 161.112 345.612 160.729 346.607C160.356 347.602 159.896 348.516 159.351 349.35C158.814 350.17 158.207 350.876 157.527 351.467C156.857 352.059 156.125 352.523 155.33 352.859C154.536 353.181 153.693 353.343 152.803 353.343C151.941 353.343 151.118 353.188 150.333 352.879C149.558 352.57 148.83 352.139 148.151 351.588C147.471 351.023 146.853 350.351 146.298 349.571C145.753 348.778 145.284 347.904 144.891 346.95C144.508 345.982 144.207 344.946 143.986 343.844C143.776 342.741 143.671 341.592 143.671 340.395C143.671 339.226 143.771 338.083 143.972 336.967C144.173 335.837 144.46 334.775 144.834 333.78C145.217 332.785 145.676 331.871 146.212 331.038C146.748 330.204 147.346 329.485 148.007 328.88C148.677 328.275 149.4 327.804 150.175 327.468C150.951 327.132 151.769 326.964 152.631 326.964C154.019 326.964 155.282 327.266 156.421 327.871C157.57 328.476 158.546 329.344 159.351 330.473C160.164 331.589 160.791 332.947 161.232 334.547C161.681 336.133 161.906 337.908 161.906 339.871ZM155.531 340.395C155.531 339.817 155.469 339.259 155.344 338.721C155.23 338.17 155.057 337.686 154.827 337.269C154.598 336.839 154.311 336.496 153.966 336.241C153.631 335.972 153.243 335.837 152.803 335.837C152.353 335.837 151.951 335.952 151.597 336.18C151.243 336.409 150.936 336.725 150.678 337.128C150.429 337.518 150.237 337.982 150.103 338.52C149.969 339.044 149.902 339.602 149.902 340.194C149.902 340.758 149.96 341.323 150.075 341.888C150.19 342.452 150.362 342.963 150.592 343.42C150.821 343.877 151.104 344.247 151.439 344.53C151.783 344.812 152.181 344.953 152.631 344.953C153.08 344.953 153.483 344.832 153.837 344.59C154.2 344.335 154.507 343.998 154.756 343.582C155.005 343.151 155.196 342.661 155.33 342.109C155.464 341.558 155.531 340.987 155.531 340.395Z"
            class="goback-text" />
        <path
            d="M184.924 339.306C184.924 341.188 184.752 342.889 184.407 344.409C184.062 345.914 183.579 347.259 182.957 348.442C182.344 349.612 181.612 350.62 180.76 351.467C179.908 352.314 178.974 353.013 177.96 353.564C176.945 354.102 175.863 354.506 174.715 354.775C173.575 355.03 172.403 355.158 171.197 355.158C170.747 355.158 170.306 355.144 169.876 355.117C169.445 355.077 169.005 355.023 168.555 354.956L168.957 327.891C170.01 327.421 171.091 327.091 172.202 326.903C173.322 326.702 174.432 326.601 175.533 326.601C176.902 326.601 178.161 326.89 179.31 327.468C180.458 328.046 181.449 328.88 182.282 329.969C183.115 331.058 183.761 332.389 184.22 333.962C184.689 335.535 184.924 337.316 184.924 339.306ZM179.037 340.597C179.046 339.871 178.989 339.172 178.864 338.499C178.75 337.827 178.553 337.236 178.276 336.725C178.008 336.2 177.663 335.784 177.242 335.474C176.821 335.152 176.318 334.977 175.734 334.95L175.16 347.454C175.734 347.333 176.256 347.071 176.725 346.667C177.194 346.25 177.596 345.746 177.931 345.155C178.276 344.55 178.539 343.884 178.721 343.158C178.912 342.419 179.018 341.659 179.037 340.879V340.597Z"
            class="goback-text" />
        <path
            d="M201.824 339.024C201.824 340.194 201.767 341.363 201.652 342.533C200.015 342.681 198.388 342.923 196.77 343.259C195.152 343.582 193.534 343.904 191.917 344.227C192.166 345.195 192.553 345.968 193.08 346.546C193.616 347.124 194.252 347.413 194.989 347.413C195.372 347.413 195.789 347.313 196.239 347.111C196.698 346.909 197.153 346.661 197.603 346.365C198.053 346.056 198.483 345.726 198.895 345.377C199.307 345.027 199.661 344.711 199.958 344.429L199.268 353.585C198.895 353.988 198.488 354.331 198.048 354.613C197.617 354.896 197.167 355.124 196.698 355.299C196.229 355.474 195.755 355.601 195.277 355.682C194.798 355.763 194.329 355.803 193.869 355.803C192.922 355.803 192.055 355.622 191.271 355.259C190.486 354.896 189.772 354.391 189.131 353.746C188.499 353.087 187.944 352.314 187.465 351.427C186.987 350.539 186.589 349.571 186.274 348.523C185.958 347.474 185.718 346.365 185.556 345.195C185.393 344.025 185.312 342.842 185.312 341.646C185.312 340.395 185.393 339.145 185.556 337.894C185.718 336.644 185.962 335.441 186.288 334.285C186.623 333.128 187.039 332.059 187.537 331.078C188.045 330.083 188.633 329.216 189.303 328.476C189.973 327.737 190.73 327.159 191.572 326.742C192.424 326.325 193.362 326.117 194.386 326.117C195.238 326.117 196.014 326.285 196.713 326.621C197.421 326.944 198.048 327.401 198.594 327.992C199.149 328.57 199.627 329.263 200.029 330.07C200.441 330.876 200.776 331.764 201.035 332.732C201.303 333.686 201.499 334.701 201.623 335.777C201.757 336.839 201.824 337.921 201.824 339.024ZM196.081 337.975C196.081 337.599 196.052 337.215 195.995 336.826C195.937 336.422 195.841 336.059 195.707 335.737C195.583 335.414 195.415 335.152 195.205 334.95C194.994 334.735 194.731 334.627 194.415 334.627C194.032 334.627 193.692 334.775 193.396 335.071C193.108 335.353 192.86 335.716 192.649 336.16C192.438 336.59 192.266 337.061 192.132 337.572C191.998 338.083 191.898 338.553 191.831 338.983L196.081 338.419V337.975Z"
            class="goback-text" />
        <path
            d="M220.075 327.044L214.819 354.311L207.697 354.875L201.236 328.537L208.042 327.649L210.799 342.977L213.469 326.439L220.075 327.044Z"
            class="goback-text" />
        <path
            d="M235.697 326.48L235.554 335.031L231.275 335.273L230.183 354.391L224.124 354.835L224.153 335.716L219.874 336.039L220.046 326.52L235.697 326.48Z"
            class="goback-text" />
        <path
            d="M253.603 326.923C253.172 331.656 252.803 336.368 252.497 341.061C252.191 345.74 251.899 350.452 251.621 355.198L245.734 355.803L245.993 352.697C245.801 353.007 245.576 353.275 245.318 353.504C245.069 353.733 244.801 353.921 244.514 354.069C244.226 354.203 243.93 354.304 243.623 354.371C243.317 354.425 243.025 354.445 242.747 354.432C242.096 354.418 241.484 354.243 240.909 353.907C240.335 353.558 239.809 353.101 239.33 352.536C238.851 351.958 238.421 351.292 238.038 350.539C237.655 349.773 237.329 348.973 237.061 348.139C236.803 347.292 236.602 346.432 236.458 345.558C236.324 344.684 236.257 343.837 236.257 343.017C236.257 341.807 236.271 340.557 236.3 339.266C236.338 337.962 236.401 336.658 236.487 335.353C236.573 334.049 236.683 332.759 236.817 331.481C236.961 330.204 237.138 328.98 237.348 327.811C238.516 327.891 239.689 327.965 240.866 328.033C242.044 328.1 243.216 328.12 244.384 328.093C244.164 329.263 243.944 330.439 243.724 331.622C243.513 332.792 243.322 333.975 243.149 335.172C242.977 336.355 242.838 337.545 242.733 338.741C242.628 339.938 242.575 341.148 242.575 342.372C242.575 342.654 242.585 343.057 242.604 343.582C242.623 344.106 242.671 344.624 242.747 345.135C242.834 345.645 242.958 346.096 243.121 346.486C243.293 346.862 243.532 347.05 243.839 347.05C244.202 347.05 244.528 346.835 244.815 346.405C245.102 345.961 245.356 345.37 245.576 344.63C245.796 343.891 245.983 343.037 246.136 342.069C246.299 341.101 246.433 340.093 246.538 339.044C246.653 337.982 246.744 336.913 246.811 335.837C246.878 334.762 246.926 333.753 246.955 332.812C246.993 331.858 247.017 331.004 247.026 330.251C247.045 329.498 247.055 328.913 247.055 328.496C247.055 328.228 247.05 327.965 247.041 327.71C247.031 327.454 247.017 327.192 246.998 326.923C247.62 326.95 248.237 326.97 248.85 326.984C249.463 326.997 250.08 327.004 250.702 327.004C251.181 327.004 251.66 327.004 252.138 327.004C252.626 326.991 253.115 326.964 253.603 326.923Z"
            class="goback-text" />
        <path
            d="M271.178 348.139C271.178 349.255 271.03 350.217 270.733 351.023C270.446 351.83 270.058 352.516 269.57 353.08C269.082 353.645 268.517 354.109 267.876 354.472C267.244 354.822 266.583 355.097 265.894 355.299C265.205 355.501 264.511 355.635 263.812 355.702C263.123 355.769 262.477 355.803 261.874 355.803C261.28 355.803 260.663 355.769 260.021 355.702C259.389 355.648 258.758 355.548 258.126 355.4C257.494 355.252 256.872 355.057 256.259 354.815C255.647 354.559 255.067 354.243 254.522 353.867L254.493 327.891C255.029 327.582 255.599 327.307 256.202 327.065C256.805 326.809 257.417 326.601 258.04 326.439C258.671 326.265 259.298 326.137 259.921 326.056C260.543 325.962 261.146 325.915 261.73 325.915C262.41 325.915 263.094 325.976 263.783 326.097C264.482 326.218 265.152 326.419 265.794 326.702C266.435 326.984 267.033 327.354 267.588 327.811C268.144 328.254 268.627 328.806 269.039 329.465C269.46 330.123 269.785 330.89 270.015 331.764C270.254 332.638 270.374 333.646 270.374 334.789C270.374 335.542 270.297 336.247 270.144 336.906C269.991 337.565 269.771 338.157 269.484 338.681C269.197 339.205 268.847 339.656 268.436 340.032C268.024 340.395 267.56 340.664 267.043 340.839C267.665 341.067 268.23 341.404 268.737 341.847C269.254 342.291 269.69 342.829 270.044 343.461C270.408 344.093 270.685 344.805 270.877 345.598C271.078 346.392 271.178 347.239 271.178 348.139ZM263.884 336.644C263.884 336.254 263.826 335.925 263.711 335.656C263.597 335.374 263.453 335.145 263.281 334.97C263.118 334.795 262.936 334.668 262.735 334.587C262.544 334.506 262.371 334.466 262.218 334.466C262.027 334.466 261.84 334.506 261.658 334.587C261.476 334.668 261.299 334.762 261.127 334.869L261.041 339.347C261.261 339.347 261.534 339.32 261.859 339.266C262.185 339.212 262.496 339.098 262.792 338.923C263.099 338.735 263.357 338.466 263.568 338.116C263.778 337.753 263.884 337.263 263.884 336.644ZM261.845 343.219C261.567 343.219 261.299 343.259 261.041 343.34L260.983 347.938C261.127 347.978 261.266 348.018 261.4 348.059C261.543 348.086 261.682 348.099 261.816 348.099C262.017 348.099 262.237 348.072 262.477 348.018C262.716 347.951 262.941 347.83 263.151 347.655C263.362 347.467 263.534 347.218 263.668 346.909C263.812 346.6 263.884 346.19 263.884 345.679C263.884 345.168 263.812 344.751 263.668 344.429C263.534 344.106 263.367 343.857 263.166 343.682C262.965 343.494 262.745 343.373 262.505 343.319C262.266 343.252 262.046 343.219 261.845 343.219Z"
            class="goback-text" />
        <path
            d="M287.691 339.024C287.691 340.194 287.633 341.363 287.519 342.533C285.882 342.681 284.254 342.923 282.637 343.259C281.019 343.582 279.401 343.904 277.783 344.227C278.032 345.195 278.42 345.968 278.946 346.546C279.482 347.124 280.119 347.413 280.856 347.413C281.239 347.413 281.655 347.313 282.105 347.111C282.565 346.909 283.019 346.661 283.469 346.365C283.919 346.056 284.35 345.726 284.762 345.377C285.173 345.027 285.527 344.711 285.824 344.429L285.135 353.585C284.762 353.988 284.355 354.331 283.915 354.613C283.484 354.896 283.034 355.124 282.565 355.299C282.096 355.474 281.622 355.601 281.143 355.682C280.665 355.763 280.196 355.803 279.736 355.803C278.788 355.803 277.922 355.622 277.137 355.259C276.352 354.896 275.639 354.391 274.998 353.746C274.366 353.087 273.811 352.314 273.332 351.427C272.853 350.539 272.456 349.571 272.14 348.523C271.824 347.474 271.585 346.365 271.422 345.195C271.259 344.025 271.178 342.842 271.178 341.646C271.178 340.395 271.259 339.145 271.422 337.894C271.585 336.644 271.829 335.441 272.155 334.285C272.49 333.128 272.906 332.059 273.404 331.078C273.911 330.083 274.5 329.216 275.17 328.476C275.84 327.737 276.596 327.159 277.439 326.742C278.291 326.325 279.229 326.117 280.253 326.117C281.105 326.117 281.88 326.285 282.579 326.621C283.288 326.944 283.915 327.401 284.46 327.992C285.015 328.57 285.494 329.263 285.896 330.07C286.308 330.876 286.643 331.764 286.901 332.732C287.169 333.686 287.365 334.701 287.49 335.777C287.624 336.839 287.691 337.921 287.691 339.024ZM281.947 337.975C281.947 337.599 281.919 337.215 281.861 336.826C281.804 336.422 281.708 336.059 281.574 335.737C281.45 335.414 281.282 335.152 281.071 334.95C280.861 334.735 280.598 334.627 280.282 334.627C279.899 334.627 279.559 334.775 279.262 335.071C278.975 335.353 278.726 335.716 278.516 336.16C278.305 336.59 278.133 337.061 277.999 337.572C277.865 338.083 277.764 338.553 277.697 338.983L281.947 338.419V337.975Z"
            class="goback-text" />
        <path
            d="M28.7558 351.205C28.3059 351.998 27.7507 352.691 27.0902 353.282C26.4297 353.874 25.7213 354.364 24.9651 354.754C24.2088 355.144 23.4334 355.433 22.6389 355.622C21.8444 355.823 21.0881 355.924 20.3702 355.924C18.9822 355.924 17.7042 355.575 16.5364 354.875C15.3685 354.176 14.3586 353.215 13.5066 351.991C12.6642 350.755 12.0037 349.302 11.5251 347.635C11.0464 345.968 10.8071 344.173 10.8071 342.251C10.8071 340.785 10.9268 339.353 11.1661 337.955C11.4054 336.543 11.7452 335.219 12.1856 333.982C12.6355 332.732 13.1811 331.589 13.8225 330.554C14.4639 329.505 15.1914 328.604 16.0051 327.851C16.8187 327.098 17.709 326.513 18.6758 326.097C19.6427 325.68 20.6765 325.471 21.7774 325.471C22.189 325.471 22.6293 325.498 23.0984 325.552C23.5675 325.592 24.0317 325.673 24.4912 325.794C24.9603 325.902 25.415 326.056 25.8553 326.258C26.2957 326.46 26.6977 326.708 27.0615 327.004L26.6594 334.708C26.1234 334.426 25.5681 334.237 24.9938 334.143C24.429 334.036 23.8738 333.982 23.3281 333.982C22.5623 333.982 21.8444 334.15 21.1743 334.486C20.5138 334.809 19.9346 335.279 19.4369 335.898C18.9487 336.516 18.561 337.269 18.2738 338.157C17.9866 339.044 17.843 340.046 17.843 341.162C17.843 341.861 17.91 342.54 18.044 343.198C18.1781 343.844 18.3791 344.422 18.6471 344.933C18.9247 345.43 19.2646 345.834 19.6666 346.143C20.0782 346.452 20.5521 346.607 21.0881 346.607C21.4519 346.607 21.8252 346.54 22.2081 346.405C22.6006 346.271 22.9357 346.042 23.2133 345.719L23.2707 344.146L19.8246 344.066L19.9969 338.015C21.4232 337.948 22.8495 337.894 24.2758 337.854C25.7022 337.8 27.1381 337.733 28.5835 337.652L28.7558 351.205Z"
            stroke="#484848" stroke-width="2" mask="url(#path-53-outside-1_0_1)" />
        <path
            d="M47.6091 339.871C47.6091 341.094 47.5086 342.277 47.3076 343.42C47.1066 344.55 46.8146 345.612 46.4317 346.607C46.0584 347.602 45.5989 348.516 45.0532 349.35C44.5172 350.17 43.9093 350.876 43.2297 351.467C42.5596 352.059 41.8273 352.523 41.0327 352.859C40.2382 353.181 39.3958 353.343 38.5056 353.343C37.644 353.343 36.8208 353.188 36.0358 352.879C35.2604 352.57 34.5329 352.139 33.8533 351.588C33.1736 351.023 32.5562 350.351 32.001 349.571C31.4553 348.778 30.9863 347.904 30.5938 346.95C30.2109 345.982 29.9093 344.946 29.6892 343.844C29.4786 342.741 29.3733 341.592 29.3733 340.395C29.3733 339.226 29.4738 338.083 29.6748 336.967C29.8758 335.837 30.163 334.775 30.5363 333.78C30.9192 332.785 31.3787 331.871 31.9148 331.038C32.4509 330.204 33.0492 329.485 33.7097 328.88C34.3798 328.275 35.1025 327.804 35.8779 327.468C36.6533 327.132 37.4717 326.964 38.3333 326.964C39.7213 326.964 40.9849 327.266 42.124 327.871C43.2727 328.476 44.2491 329.344 45.0532 330.473C45.8669 331.589 46.4939 332.947 46.9343 334.547C47.3842 336.133 47.6091 337.908 47.6091 339.871ZM41.2338 340.395C41.2338 339.817 41.1715 339.259 41.0471 338.721C40.9322 338.17 40.7599 337.686 40.5302 337.269C40.3004 336.839 40.0132 336.496 39.6686 336.241C39.3336 335.972 38.9459 335.837 38.5056 335.837C38.0556 335.837 37.6536 335.952 37.2994 336.18C36.9452 336.409 36.6389 336.725 36.3804 337.128C36.1315 337.518 35.9401 337.982 35.8061 338.52C35.6721 339.044 35.605 339.602 35.605 340.194C35.605 340.758 35.6625 341.323 35.7774 341.888C35.8922 342.452 36.0645 342.963 36.2943 343.42C36.524 343.877 36.8064 344.247 37.1415 344.53C37.4861 344.812 37.8833 344.953 38.3333 344.953C38.7832 344.953 39.1852 344.832 39.5394 344.59C39.9032 344.335 40.2095 343.998 40.4584 343.582C40.7073 343.151 40.8987 342.661 41.0327 342.109C41.1668 341.558 41.2338 340.987 41.2338 340.395Z"
            stroke="#484848" stroke-width="2" mask="url(#path-53-outside-1_0_1)" />
        <path
            d="M71.0717 348.139C71.0717 349.255 70.9233 350.217 70.6265 351.023C70.3394 351.83 69.9517 352.516 69.4635 353.08C68.9753 353.645 68.4105 354.109 67.7691 354.472C67.1373 354.822 66.4768 355.097 65.7876 355.299C65.0983 355.501 64.4043 355.635 63.7055 355.702C63.0163 355.769 62.3701 355.803 61.7671 355.803C61.1736 355.803 60.5561 355.769 59.9148 355.702C59.283 355.648 58.6512 355.548 58.0194 355.4C57.3876 355.252 56.7654 355.057 56.1527 354.815C55.5401 354.559 54.9609 354.243 54.4153 353.867L54.3866 327.891C54.9226 327.582 55.4922 327.307 56.0953 327.065C56.6984 326.809 57.311 326.601 57.9332 326.439C58.565 326.265 59.192 326.137 59.8143 326.056C60.4365 325.962 61.0396 325.915 61.6235 325.915C62.3031 325.915 62.9876 325.976 63.6768 326.097C64.3756 326.218 65.0457 326.419 65.6871 326.702C66.3284 326.984 66.9267 327.354 67.4819 327.811C68.0371 328.254 68.5206 328.806 68.9322 329.465C69.3534 330.123 69.6789 330.89 69.9086 331.764C70.1479 332.638 70.2676 333.646 70.2676 334.789C70.2676 335.542 70.191 336.247 70.0378 336.906C69.8847 337.565 69.6645 338.157 69.3773 338.681C69.0901 339.205 68.7407 339.656 68.3291 340.032C67.9175 340.395 67.4532 340.664 66.9363 340.839C67.5585 341.067 68.1233 341.404 68.6307 341.847C69.1476 342.291 69.5831 342.829 69.9373 343.461C70.3011 344.093 70.5787 344.805 70.7701 345.598C70.9712 346.392 71.0717 347.239 71.0717 348.139ZM63.7773 336.644C63.7773 336.254 63.7199 335.925 63.605 335.656C63.4901 335.374 63.3466 335.145 63.1742 334.97C63.0115 334.795 62.8296 334.668 62.6286 334.587C62.4372 334.506 62.2648 334.466 62.1117 334.466C61.9202 334.466 61.7336 334.506 61.5517 334.587C61.3698 334.668 61.1927 334.762 61.0204 334.869L60.9343 339.347C61.1544 339.347 61.4272 339.32 61.7527 339.266C62.0782 339.212 62.3893 339.098 62.686 338.923C62.9924 338.735 63.2508 338.466 63.4614 338.116C63.672 337.753 63.7773 337.263 63.7773 336.644ZM61.7384 343.219C61.4607 343.219 61.1927 343.259 60.9343 343.34L60.8768 347.938C61.0204 347.978 61.1592 348.018 61.2932 348.059C61.4368 348.086 61.5756 348.099 61.7096 348.099C61.9107 348.099 62.1308 348.072 62.3701 348.018C62.6095 347.951 62.8344 347.83 63.045 347.655C63.2556 347.467 63.4279 347.218 63.5619 346.909C63.7055 346.6 63.7773 346.19 63.7773 345.679C63.7773 345.168 63.7055 344.751 63.5619 344.429C63.4279 344.106 63.2604 343.857 63.0594 343.682C62.8584 343.494 62.6382 343.373 62.3989 343.319C62.1595 343.252 61.9394 343.219 61.7384 343.219Z"
            stroke="#484848" stroke-width="2" mask="url(#path-53-outside-1_0_1)" />
        <path
            d="M89.9537 353.585L82.8317 354.875L81.9701 350.318H78.6963L77.9783 354.875L70.6553 353.867L76.3701 327.004L84.3537 326.439L89.9537 353.585ZM81.4532 344.146L80.3619 337.128L79.2994 344.146H81.4532Z"
            stroke="#484848" stroke-width="2" mask="url(#path-53-outside-1_0_1)" />
        <path
            d="M103.58 327.77L103.063 336.281C102.786 336.174 102.513 336.1 102.245 336.059C101.977 336.019 101.704 335.999 101.427 335.999C100.747 335.999 100.096 336.12 99.4737 336.362C98.861 336.604 98.3154 336.973 97.8368 337.471C97.3677 337.968 96.9896 338.6 96.7024 339.367C96.4248 340.12 96.286 341.014 96.286 342.049C96.286 342.802 96.3626 343.461 96.5157 344.025C96.6785 344.577 96.9034 345.04 97.1906 345.417C97.4874 345.78 97.8416 346.056 98.2532 346.244C98.6744 346.432 99.1387 346.526 99.646 346.526C100 346.526 100.364 346.479 100.737 346.385C101.111 346.277 101.484 346.136 101.857 345.961C102.231 345.787 102.59 345.585 102.934 345.356C103.279 345.128 103.6 344.886 103.896 344.63L103.667 354.109C103.293 354.378 102.891 354.62 102.46 354.835C102.03 355.037 101.584 355.211 101.125 355.359C100.675 355.521 100.22 355.642 99.7609 355.722C99.311 355.803 98.8802 355.843 98.4686 355.843C97.1093 355.843 95.8696 355.487 94.7496 354.775C93.6392 354.062 92.6819 353.094 91.8778 351.87C91.0833 350.634 90.4658 349.202 90.0255 347.575C89.5852 345.948 89.365 344.214 89.365 342.372C89.365 340.167 89.5852 338.11 90.0255 336.2C90.4754 334.291 91.1311 332.638 91.9927 331.239C92.8638 329.828 93.9359 328.725 95.2091 327.932C96.4918 327.125 97.9612 326.722 99.6173 326.722C100.278 326.722 100.948 326.796 101.628 326.944C102.307 327.091 102.958 327.367 103.58 327.77Z"
            stroke="#484848" stroke-width="2" mask="url(#path-53-outside-1_0_1)" />
        <path
            d="M122.606 329.263L116.259 339.871L122.089 353.746L115.426 355.4L111.061 347.091L110.832 354.996L104.858 355.319L105.318 326.439L112.009 326.964L111.492 335.273L115.656 326.843L122.606 329.263Z"
            stroke="#484848" stroke-width="2" mask="url(#path-53-outside-1_0_1)" />
        <path
            d="M143.627 326.883L143.484 335.434L139.205 335.676L138.688 354.391L132.629 354.835L132.083 336.12L127.804 336.442L127.976 326.923L143.627 326.883Z"
            stroke="#484848" stroke-width="2" mask="url(#path-53-outside-1_0_1)" />
        <path
            d="M161.906 339.871C161.906 341.094 161.806 342.277 161.605 343.42C161.404 344.55 161.112 345.612 160.729 346.607C160.356 347.602 159.896 348.516 159.351 349.35C158.814 350.17 158.207 350.876 157.527 351.467C156.857 352.059 156.125 352.523 155.33 352.859C154.536 353.181 153.693 353.343 152.803 353.343C151.941 353.343 151.118 353.188 150.333 352.879C149.558 352.57 148.83 352.139 148.151 351.588C147.471 351.023 146.853 350.351 146.298 349.571C145.753 348.778 145.284 347.904 144.891 346.95C144.508 345.982 144.207 344.946 143.986 343.844C143.776 342.741 143.671 341.592 143.671 340.395C143.671 339.226 143.771 338.083 143.972 336.967C144.173 335.837 144.46 334.775 144.834 333.78C145.217 332.785 145.676 331.871 146.212 331.038C146.748 330.204 147.346 329.485 148.007 328.88C148.677 328.275 149.4 327.804 150.175 327.468C150.951 327.132 151.769 326.964 152.631 326.964C154.019 326.964 155.282 327.266 156.421 327.871C157.57 328.476 158.546 329.344 159.351 330.473C160.164 331.589 160.791 332.947 161.232 334.547C161.681 336.133 161.906 337.908 161.906 339.871ZM155.531 340.395C155.531 339.817 155.469 339.259 155.344 338.721C155.23 338.17 155.057 337.686 154.827 337.269C154.598 336.839 154.311 336.496 153.966 336.241C153.631 335.972 153.243 335.837 152.803 335.837C152.353 335.837 151.951 335.952 151.597 336.18C151.243 336.409 150.936 336.725 150.678 337.128C150.429 337.518 150.237 337.982 150.103 338.52C149.969 339.044 149.902 339.602 149.902 340.194C149.902 340.758 149.96 341.323 150.075 341.888C150.19 342.452 150.362 342.963 150.592 343.42C150.821 343.877 151.104 344.247 151.439 344.53C151.783 344.812 152.181 344.953 152.631 344.953C153.08 344.953 153.483 344.832 153.837 344.59C154.2 344.335 154.507 343.998 154.756 343.582C155.005 343.151 155.196 342.661 155.33 342.109C155.464 341.558 155.531 340.987 155.531 340.395Z"
            stroke="#484848" stroke-width="2" mask="url(#path-53-outside-1_0_1)" />
        <path
            d="M184.924 339.306C184.924 341.188 184.752 342.889 184.407 344.409C184.062 345.914 183.579 347.259 182.957 348.442C182.344 349.612 181.612 350.62 180.76 351.467C179.908 352.314 178.974 353.013 177.96 353.564C176.945 354.102 175.863 354.506 174.715 354.775C173.575 355.03 172.403 355.158 171.197 355.158C170.747 355.158 170.306 355.144 169.876 355.117C169.445 355.077 169.005 355.023 168.555 354.956L168.957 327.891C170.01 327.421 171.091 327.091 172.202 326.903C173.322 326.702 174.432 326.601 175.533 326.601C176.902 326.601 178.161 326.89 179.31 327.468C180.458 328.046 181.449 328.88 182.282 329.969C183.115 331.058 183.761 332.389 184.22 333.962C184.689 335.535 184.924 337.316 184.924 339.306ZM179.037 340.597C179.046 339.871 178.989 339.172 178.864 338.499C178.75 337.827 178.553 337.236 178.276 336.725C178.008 336.2 177.663 335.784 177.242 335.474C176.821 335.152 176.318 334.977 175.734 334.95L175.16 347.454C175.734 347.333 176.256 347.071 176.725 346.667C177.194 346.25 177.596 345.746 177.931 345.155C178.276 344.55 178.539 343.884 178.721 343.158C178.912 342.419 179.018 341.659 179.037 340.879V340.597Z"
            stroke="#484848" stroke-width="2" mask="url(#path-53-outside-1_0_1)" />
        <path
            d="M201.824 339.024C201.824 340.194 201.767 341.363 201.652 342.533C200.015 342.681 198.388 342.923 196.77 343.259C195.152 343.582 193.534 343.904 191.917 344.227C192.166 345.195 192.553 345.968 193.08 346.546C193.616 347.124 194.252 347.413 194.989 347.413C195.372 347.413 195.789 347.313 196.239 347.111C196.698 346.909 197.153 346.661 197.603 346.365C198.053 346.056 198.483 345.726 198.895 345.377C199.307 345.027 199.661 344.711 199.958 344.429L199.268 353.585C198.895 353.988 198.488 354.331 198.048 354.613C197.617 354.896 197.167 355.124 196.698 355.299C196.229 355.474 195.755 355.601 195.277 355.682C194.798 355.763 194.329 355.803 193.869 355.803C192.922 355.803 192.055 355.622 191.271 355.259C190.486 354.896 189.772 354.391 189.131 353.746C188.499 353.087 187.944 352.314 187.465 351.427C186.987 350.539 186.589 349.571 186.274 348.523C185.958 347.474 185.718 346.365 185.556 345.195C185.393 344.025 185.312 342.842 185.312 341.646C185.312 340.395 185.393 339.145 185.556 337.894C185.718 336.644 185.962 335.441 186.288 334.285C186.623 333.128 187.039 332.059 187.537 331.078C188.045 330.083 188.633 329.216 189.303 328.476C189.973 327.737 190.73 327.159 191.572 326.742C192.424 326.325 193.362 326.117 194.386 326.117C195.238 326.117 196.014 326.285 196.713 326.621C197.421 326.944 198.048 327.401 198.594 327.992C199.149 328.57 199.627 329.263 200.029 330.07C200.441 330.876 200.776 331.764 201.035 332.732C201.303 333.686 201.499 334.701 201.623 335.777C201.757 336.839 201.824 337.921 201.824 339.024ZM196.081 337.975C196.081 337.599 196.052 337.215 195.995 336.826C195.937 336.422 195.841 336.059 195.707 335.737C195.583 335.414 195.415 335.152 195.205 334.95C194.994 334.735 194.731 334.627 194.415 334.627C194.032 334.627 193.692 334.775 193.396 335.071C193.108 335.353 192.86 335.716 192.649 336.16C192.438 336.59 192.266 337.061 192.132 337.572C191.998 338.083 191.898 338.553 191.831 338.983L196.081 338.419V337.975Z"
            stroke="#484848" stroke-width="2" mask="url(#path-53-outside-1_0_1)" />
        <path
            d="M220.075 327.044L214.819 354.311L207.697 354.875L201.236 328.537L208.042 327.649L210.799 342.977L213.469 326.439L220.075 327.044Z"
            stroke="#484848" stroke-width="2" mask="url(#path-53-outside-1_0_1)" />
        <path
            d="M235.697 326.48L235.554 335.031L231.275 335.273L230.183 354.391L224.124 354.835L224.153 335.716L219.874 336.039L220.046 326.52L235.697 326.48Z"
            stroke="#484848" stroke-width="2" mask="url(#path-53-outside-1_0_1)" />
        <path
            d="M253.603 326.923C253.172 331.656 252.803 336.368 252.497 341.061C252.191 345.74 251.899 350.452 251.621 355.198L245.734 355.803L245.993 352.697C245.801 353.007 245.576 353.275 245.318 353.504C245.069 353.733 244.801 353.921 244.514 354.069C244.226 354.203 243.93 354.304 243.623 354.371C243.317 354.425 243.025 354.445 242.747 354.432C242.096 354.418 241.484 354.243 240.909 353.907C240.335 353.558 239.809 353.101 239.33 352.536C238.851 351.958 238.421 351.292 238.038 350.539C237.655 349.773 237.329 348.973 237.061 348.139C236.803 347.292 236.602 346.432 236.458 345.558C236.324 344.684 236.257 343.837 236.257 343.017C236.257 341.807 236.271 340.557 236.3 339.266C236.338 337.962 236.401 336.658 236.487 335.353C236.573 334.049 236.683 332.759 236.817 331.481C236.961 330.204 237.138 328.98 237.348 327.811C238.516 327.891 239.689 327.965 240.866 328.033C242.044 328.1 243.216 328.12 244.384 328.093C244.164 329.263 243.944 330.439 243.724 331.622C243.513 332.792 243.322 333.975 243.149 335.172C242.977 336.355 242.838 337.545 242.733 338.741C242.628 339.938 242.575 341.148 242.575 342.372C242.575 342.654 242.585 343.057 242.604 343.582C242.623 344.106 242.671 344.624 242.747 345.135C242.834 345.645 242.958 346.096 243.121 346.486C243.293 346.862 243.532 347.05 243.839 347.05C244.202 347.05 244.528 346.835 244.815 346.405C245.102 345.961 245.356 345.37 245.576 344.63C245.796 343.891 245.983 343.037 246.136 342.069C246.299 341.101 246.433 340.093 246.538 339.044C246.653 337.982 246.744 336.913 246.811 335.837C246.878 334.762 246.926 333.753 246.955 332.812C246.993 331.858 247.017 331.004 247.026 330.251C247.045 329.498 247.055 328.913 247.055 328.496C247.055 328.228 247.05 327.965 247.041 327.71C247.031 327.454 247.017 327.192 246.998 326.923C247.62 326.95 248.237 326.97 248.85 326.984C249.463 326.997 250.08 327.004 250.702 327.004C251.181 327.004 251.66 327.004 252.138 327.004C252.626 326.991 253.115 326.964 253.603 326.923Z"
            stroke="#484848" stroke-width="2" mask="url(#path-53-outside-1_0_1)" />
        <path
            d="M271.178 348.139C271.178 349.255 271.03 350.217 270.733 351.023C270.446 351.83 270.058 352.516 269.57 353.08C269.082 353.645 268.517 354.109 267.876 354.472C267.244 354.822 266.583 355.097 265.894 355.299C265.205 355.501 264.511 355.635 263.812 355.702C263.123 355.769 262.477 355.803 261.874 355.803C261.28 355.803 260.663 355.769 260.021 355.702C259.389 355.648 258.758 355.548 258.126 355.4C257.494 355.252 256.872 355.057 256.259 354.815C255.647 354.559 255.067 354.243 254.522 353.867L254.493 327.891C255.029 327.582 255.599 327.307 256.202 327.065C256.805 326.809 257.417 326.601 258.04 326.439C258.671 326.265 259.298 326.137 259.921 326.056C260.543 325.962 261.146 325.915 261.73 325.915C262.41 325.915 263.094 325.976 263.783 326.097C264.482 326.218 265.152 326.419 265.794 326.702C266.435 326.984 267.033 327.354 267.588 327.811C268.144 328.254 268.627 328.806 269.039 329.465C269.46 330.123 269.785 330.89 270.015 331.764C270.254 332.638 270.374 333.646 270.374 334.789C270.374 335.542 270.297 336.247 270.144 336.906C269.991 337.565 269.771 338.157 269.484 338.681C269.197 339.205 268.847 339.656 268.436 340.032C268.024 340.395 267.56 340.664 267.043 340.839C267.665 341.067 268.23 341.404 268.737 341.847C269.254 342.291 269.69 342.829 270.044 343.461C270.408 344.093 270.685 344.805 270.877 345.598C271.078 346.392 271.178 347.239 271.178 348.139ZM263.884 336.644C263.884 336.254 263.826 335.925 263.711 335.656C263.597 335.374 263.453 335.145 263.281 334.97C263.118 334.795 262.936 334.668 262.735 334.587C262.544 334.506 262.371 334.466 262.218 334.466C262.027 334.466 261.84 334.506 261.658 334.587C261.476 334.668 261.299 334.762 261.127 334.869L261.041 339.347C261.261 339.347 261.534 339.32 261.859 339.266C262.185 339.212 262.496 339.098 262.792 338.923C263.099 338.735 263.357 338.466 263.568 338.116C263.778 337.753 263.884 337.263 263.884 336.644ZM261.845 343.219C261.567 343.219 261.299 343.259 261.041 343.34L260.983 347.938C261.127 347.978 261.266 348.018 261.4 348.059C261.543 348.086 261.682 348.099 261.816 348.099C262.017 348.099 262.237 348.072 262.477 348.018C262.716 347.951 262.941 347.83 263.151 347.655C263.362 347.467 263.534 347.218 263.668 346.909C263.812 346.6 263.884 346.19 263.884 345.679C263.884 345.168 263.812 344.751 263.668 344.429C263.534 344.106 263.367 343.857 263.166 343.682C262.965 343.494 262.745 343.373 262.505 343.319C262.266 343.252 262.046 343.219 261.845 343.219Z"
            stroke="#484848" stroke-width="2" mask="url(#path-53-outside-1_0_1)" />
        <path
            d="M287.691 339.024C287.691 340.194 287.633 341.363 287.519 342.533C285.882 342.681 284.254 342.923 282.637 343.259C281.019 343.582 279.401 343.904 277.783 344.227C278.032 345.195 278.42 345.968 278.946 346.546C279.482 347.124 280.119 347.413 280.856 347.413C281.239 347.413 281.655 347.313 282.105 347.111C282.565 346.909 283.019 346.661 283.469 346.365C283.919 346.056 284.35 345.726 284.762 345.377C285.173 345.027 285.527 344.711 285.824 344.429L285.135 353.585C284.762 353.988 284.355 354.331 283.915 354.613C283.484 354.896 283.034 355.124 282.565 355.299C282.096 355.474 281.622 355.601 281.143 355.682C280.665 355.763 280.196 355.803 279.736 355.803C278.788 355.803 277.922 355.622 277.137 355.259C276.352 354.896 275.639 354.391 274.998 353.746C274.366 353.087 273.811 352.314 273.332 351.427C272.853 350.539 272.456 349.571 272.14 348.523C271.824 347.474 271.585 346.365 271.422 345.195C271.259 344.025 271.178 342.842 271.178 341.646C271.178 340.395 271.259 339.145 271.422 337.894C271.585 336.644 271.829 335.441 272.155 334.285C272.49 333.128 272.906 332.059 273.404 331.078C273.911 330.083 274.5 329.216 275.17 328.476C275.84 327.737 276.596 327.159 277.439 326.742C278.291 326.325 279.229 326.117 280.253 326.117C281.105 326.117 281.88 326.285 282.579 326.621C283.288 326.944 283.915 327.401 284.46 327.992C285.015 328.57 285.494 329.263 285.896 330.07C286.308 330.876 286.643 331.764 286.901 332.732C287.169 333.686 287.365 334.701 287.49 335.777C287.624 336.839 287.691 337.921 287.691 339.024ZM281.947 337.975C281.947 337.599 281.919 337.215 281.861 336.826C281.804 336.422 281.708 336.059 281.574 335.737C281.45 335.414 281.282 335.152 281.071 334.95C280.861 334.735 280.598 334.627 280.282 334.627C279.899 334.627 279.559 334.775 279.262 335.071C278.975 335.353 278.726 335.716 278.516 336.16C278.305 336.59 278.133 337.061 277.999 337.572C277.865 338.083 277.764 338.553 277.697 338.983L281.947 338.419V337.975Z"
            stroke="#484848" stroke-width="2" mask="url(#path-53-outside-1_0_1)" />
    </g>
    <rect x="1.31348" y="308.937" width="300.092" height="62.8735" rx="10"
        stroke="url(#paint5_linear_0_1)" stroke-width="2" />
    <rect x="1.31348" y="308.937" width="300.092" height="62.8735" rx="10" stroke="#A4A4A4"
        stroke-opacity="0.1" stroke-width="2" />
    <mask id="path-53-outside-1_0_1" maskUnits="userSpaceOnUse" x="9.80713" y="324.471" width="279"
        height="33" fill="black">
        <rect fill="white" x="9.80713" y="324.471" width="279" height="33" />
        <path
            d="M28.7558 351.205C28.3059 351.998 27.7507 352.691 27.0902 353.282C26.4297 353.874 25.7213 354.364 24.9651 354.754C24.2088 355.144 23.4334 355.433 22.6389 355.622C21.8444 355.823 21.0881 355.924 20.3702 355.924C18.9822 355.924 17.7042 355.575 16.5364 354.875C15.3685 354.176 14.3586 353.215 13.5066 351.991C12.6642 350.755 12.0037 349.302 11.5251 347.635C11.0464 345.968 10.8071 344.173 10.8071 342.251C10.8071 340.785 10.9268 339.353 11.1661 337.955C11.4054 336.543 11.7452 335.219 12.1856 333.982C12.6355 332.732 13.1811 331.589 13.8225 330.554C14.4639 329.505 15.1914 328.604 16.0051 327.851C16.8187 327.098 17.709 326.513 18.6758 326.097C19.6427 325.68 20.6765 325.471 21.7774 325.471C22.189 325.471 22.6293 325.498 23.0984 325.552C23.5675 325.592 24.0317 325.673 24.4912 325.794C24.9603 325.902 25.415 326.056 25.8553 326.258C26.2957 326.46 26.6977 326.708 27.0615 327.004L26.6594 334.708C26.1234 334.426 25.5681 334.237 24.9938 334.143C24.429 334.036 23.8738 333.982 23.3281 333.982C22.5623 333.982 21.8444 334.15 21.1743 334.486C20.5138 334.809 19.9346 335.279 19.4369 335.898C18.9487 336.516 18.561 337.269 18.2738 338.157C17.9866 339.044 17.843 340.046 17.843 341.162C17.843 341.861 17.91 342.54 18.044 343.198C18.1781 343.844 18.3791 344.422 18.6471 344.933C18.9247 345.43 19.2646 345.834 19.6666 346.143C20.0782 346.452 20.5521 346.607 21.0881 346.607C21.4519 346.607 21.8252 346.54 22.2081 346.405C22.6006 346.271 22.9357 346.042 23.2133 345.719L23.2707 344.146L19.8246 344.066L19.9969 338.015C21.4232 337.948 22.8495 337.894 24.2758 337.854C25.7022 337.8 27.1381 337.733 28.5835 337.652L28.7558 351.205Z" />
        <path
            d="M47.6091 339.871C47.6091 341.094 47.5086 342.277 47.3076 343.42C47.1066 344.55 46.8146 345.612 46.4317 346.607C46.0584 347.602 45.5989 348.516 45.0532 349.35C44.5172 350.17 43.9093 350.876 43.2297 351.467C42.5596 352.059 41.8273 352.523 41.0327 352.859C40.2382 353.181 39.3958 353.343 38.5056 353.343C37.644 353.343 36.8208 353.188 36.0358 352.879C35.2604 352.57 34.5329 352.139 33.8533 351.588C33.1736 351.023 32.5562 350.351 32.001 349.571C31.4553 348.778 30.9863 347.904 30.5938 346.95C30.2109 345.982 29.9093 344.946 29.6892 343.844C29.4786 342.741 29.3733 341.592 29.3733 340.395C29.3733 339.226 29.4738 338.083 29.6748 336.967C29.8758 335.837 30.163 334.775 30.5363 333.78C30.9192 332.785 31.3787 331.871 31.9148 331.038C32.4509 330.204 33.0492 329.485 33.7097 328.88C34.3798 328.275 35.1025 327.804 35.8779 327.468C36.6533 327.132 37.4717 326.964 38.3333 326.964C39.7213 326.964 40.9849 327.266 42.124 327.871C43.2727 328.476 44.2491 329.344 45.0532 330.473C45.8669 331.589 46.4939 332.947 46.9343 334.547C47.3842 336.133 47.6091 337.908 47.6091 339.871ZM41.2338 340.395C41.2338 339.817 41.1715 339.259 41.0471 338.721C40.9322 338.17 40.7599 337.686 40.5302 337.269C40.3004 336.839 40.0132 336.496 39.6686 336.241C39.3336 335.972 38.9459 335.837 38.5056 335.837C38.0556 335.837 37.6536 335.952 37.2994 336.18C36.9452 336.409 36.6389 336.725 36.3804 337.128C36.1315 337.518 35.9401 337.982 35.8061 338.52C35.6721 339.044 35.605 339.602 35.605 340.194C35.605 340.758 35.6625 341.323 35.7774 341.888C35.8922 342.452 36.0645 342.963 36.2943 343.42C36.524 343.877 36.8064 344.247 37.1415 344.53C37.4861 344.812 37.8833 344.953 38.3333 344.953C38.7832 344.953 39.1852 344.832 39.5394 344.59C39.9032 344.335 40.2095 343.998 40.4584 343.582C40.7073 343.151 40.8987 342.661 41.0327 342.109C41.1668 341.558 41.2338 340.987 41.2338 340.395Z" />
        <path
            d="M71.0717 348.139C71.0717 349.255 70.9233 350.217 70.6265 351.023C70.3394 351.83 69.9517 352.516 69.4635 353.08C68.9753 353.645 68.4105 354.109 67.7691 354.472C67.1373 354.822 66.4768 355.097 65.7876 355.299C65.0983 355.501 64.4043 355.635 63.7055 355.702C63.0163 355.769 62.3701 355.803 61.7671 355.803C61.1736 355.803 60.5561 355.769 59.9148 355.702C59.283 355.648 58.6512 355.548 58.0194 355.4C57.3876 355.252 56.7654 355.057 56.1527 354.815C55.5401 354.559 54.9609 354.243 54.4153 353.867L54.3866 327.891C54.9226 327.582 55.4922 327.307 56.0953 327.065C56.6984 326.809 57.311 326.601 57.9332 326.439C58.565 326.265 59.192 326.137 59.8143 326.056C60.4365 325.962 61.0396 325.915 61.6235 325.915C62.3031 325.915 62.9876 325.976 63.6768 326.097C64.3756 326.218 65.0457 326.419 65.6871 326.702C66.3284 326.984 66.9267 327.354 67.4819 327.811C68.0371 328.254 68.5206 328.806 68.9322 329.465C69.3534 330.123 69.6789 330.89 69.9086 331.764C70.1479 332.638 70.2676 333.646 70.2676 334.789C70.2676 335.542 70.191 336.247 70.0378 336.906C69.8847 337.565 69.6645 338.157 69.3773 338.681C69.0901 339.205 68.7407 339.656 68.3291 340.032C67.9175 340.395 67.4532 340.664 66.9363 340.839C67.5585 341.067 68.1233 341.404 68.6307 341.847C69.1476 342.291 69.5831 342.829 69.9373 343.461C70.3011 344.093 70.5787 344.805 70.7701 345.598C70.9712 346.392 71.0717 347.239 71.0717 348.139ZM63.7773 336.644C63.7773 336.254 63.7199 335.925 63.605 335.656C63.4901 335.374 63.3466 335.145 63.1742 334.97C63.0115 334.795 62.8296 334.668 62.6286 334.587C62.4372 334.506 62.2648 334.466 62.1117 334.466C61.9202 334.466 61.7336 334.506 61.5517 334.587C61.3698 334.668 61.1927 334.762 61.0204 334.869L60.9343 339.347C61.1544 339.347 61.4272 339.32 61.7527 339.266C62.0782 339.212 62.3893 339.098 62.686 338.923C62.9924 338.735 63.2508 338.466 63.4614 338.116C63.672 337.753 63.7773 337.263 63.7773 336.644ZM61.7384 343.219C61.4607 343.219 61.1927 343.259 60.9343 343.34L60.8768 347.938C61.0204 347.978 61.1592 348.018 61.2932 348.059C61.4368 348.086 61.5756 348.099 61.7096 348.099C61.9107 348.099 62.1308 348.072 62.3701 348.018C62.6095 347.951 62.8344 347.83 63.045 347.655C63.2556 347.467 63.4279 347.218 63.5619 346.909C63.7055 346.6 63.7773 346.19 63.7773 345.679C63.7773 345.168 63.7055 344.751 63.5619 344.429C63.4279 344.106 63.2604 343.857 63.0594 343.682C62.8584 343.494 62.6382 343.373 62.3989 343.319C62.1595 343.252 61.9394 343.219 61.7384 343.219Z" />
        <path
            d="M89.9537 353.585L82.8317 354.875L81.9701 350.318H78.6963L77.9783 354.875L70.6553 353.867L76.3701 327.004L84.3537 326.439L89.9537 353.585ZM81.4532 344.146L80.3619 337.128L79.2994 344.146H81.4532Z" />
        <path
            d="M103.58 327.77L103.063 336.281C102.786 336.174 102.513 336.1 102.245 336.059C101.977 336.019 101.704 335.999 101.427 335.999C100.747 335.999 100.096 336.12 99.4737 336.362C98.861 336.604 98.3154 336.973 97.8368 337.471C97.3677 337.968 96.9896 338.6 96.7024 339.367C96.4248 340.12 96.286 341.014 96.286 342.049C96.286 342.802 96.3626 343.461 96.5157 344.025C96.6785 344.577 96.9034 345.04 97.1906 345.417C97.4874 345.78 97.8416 346.056 98.2532 346.244C98.6744 346.432 99.1387 346.526 99.646 346.526C100 346.526 100.364 346.479 100.737 346.385C101.111 346.277 101.484 346.136 101.857 345.961C102.231 345.787 102.59 345.585 102.934 345.356C103.279 345.128 103.6 344.886 103.896 344.63L103.667 354.109C103.293 354.378 102.891 354.62 102.46 354.835C102.03 355.037 101.584 355.211 101.125 355.359C100.675 355.521 100.22 355.642 99.7609 355.722C99.311 355.803 98.8802 355.843 98.4686 355.843C97.1093 355.843 95.8696 355.487 94.7496 354.775C93.6392 354.062 92.6819 353.094 91.8778 351.87C91.0833 350.634 90.4658 349.202 90.0255 347.575C89.5852 345.948 89.365 344.214 89.365 342.372C89.365 340.167 89.5852 338.11 90.0255 336.2C90.4754 334.291 91.1311 332.638 91.9927 331.239C92.8638 329.828 93.9359 328.725 95.2091 327.932C96.4918 327.125 97.9612 326.722 99.6173 326.722C100.278 326.722 100.948 326.796 101.628 326.944C102.307 327.091 102.958 327.367 103.58 327.77Z" />
        <path
            d="M122.606 329.263L116.259 339.871L122.089 353.746L115.426 355.4L111.061 347.091L110.832 354.996L104.858 355.319L105.318 326.439L112.009 326.964L111.492 335.273L115.656 326.843L122.606 329.263Z" />
        <path
            d="M143.627 326.883L143.484 335.434L139.205 335.676L138.688 354.391L132.629 354.835L132.083 336.12L127.804 336.442L127.976 326.923L143.627 326.883Z" />
        <path
            d="M161.906 339.871C161.906 341.094 161.806 342.277 161.605 343.42C161.404 344.55 161.112 345.612 160.729 346.607C160.356 347.602 159.896 348.516 159.351 349.35C158.814 350.17 158.207 350.876 157.527 351.467C156.857 352.059 156.125 352.523 155.33 352.859C154.536 353.181 153.693 353.343 152.803 353.343C151.941 353.343 151.118 353.188 150.333 352.879C149.558 352.57 148.83 352.139 148.151 351.588C147.471 351.023 146.853 350.351 146.298 349.571C145.753 348.778 145.284 347.904 144.891 346.95C144.508 345.982 144.207 344.946 143.986 343.844C143.776 342.741 143.671 341.592 143.671 340.395C143.671 339.226 143.771 338.083 143.972 336.967C144.173 335.837 144.46 334.775 144.834 333.78C145.217 332.785 145.676 331.871 146.212 331.038C146.748 330.204 147.346 329.485 148.007 328.88C148.677 328.275 149.4 327.804 150.175 327.468C150.951 327.132 151.769 326.964 152.631 326.964C154.019 326.964 155.282 327.266 156.421 327.871C157.57 328.476 158.546 329.344 159.351 330.473C160.164 331.589 160.791 332.947 161.232 334.547C161.681 336.133 161.906 337.908 161.906 339.871ZM155.531 340.395C155.531 339.817 155.469 339.259 155.344 338.721C155.23 338.17 155.057 337.686 154.827 337.269C154.598 336.839 154.311 336.496 153.966 336.241C153.631 335.972 153.243 335.837 152.803 335.837C152.353 335.837 151.951 335.952 151.597 336.18C151.243 336.409 150.936 336.725 150.678 337.128C150.429 337.518 150.237 337.982 150.103 338.52C149.969 339.044 149.902 339.602 149.902 340.194C149.902 340.758 149.96 341.323 150.075 341.888C150.19 342.452 150.362 342.963 150.592 343.42C150.821 343.877 151.104 344.247 151.439 344.53C151.783 344.812 152.181 344.953 152.631 344.953C153.08 344.953 153.483 344.832 153.837 344.59C154.2 344.335 154.507 343.998 154.756 343.582C155.005 343.151 155.196 342.661 155.33 342.109C155.464 341.558 155.531 340.987 155.531 340.395Z" />
        <path
            d="M184.924 339.306C184.924 341.188 184.752 342.889 184.407 344.409C184.062 345.914 183.579 347.259 182.957 348.442C182.344 349.612 181.612 350.62 180.76 351.467C179.908 352.314 178.974 353.013 177.96 353.564C176.945 354.102 175.863 354.506 174.715 354.775C173.575 355.03 172.403 355.158 171.197 355.158C170.747 355.158 170.306 355.144 169.876 355.117C169.445 355.077 169.005 355.023 168.555 354.956L168.957 327.891C170.01 327.421 171.091 327.091 172.202 326.903C173.322 326.702 174.432 326.601 175.533 326.601C176.902 326.601 178.161 326.89 179.31 327.468C180.458 328.046 181.449 328.88 182.282 329.969C183.115 331.058 183.761 332.389 184.22 333.962C184.689 335.535 184.924 337.316 184.924 339.306ZM179.037 340.597C179.046 339.871 178.989 339.172 178.864 338.499C178.75 337.827 178.553 337.236 178.276 336.725C178.008 336.2 177.663 335.784 177.242 335.474C176.821 335.152 176.318 334.977 175.734 334.95L175.16 347.454C175.734 347.333 176.256 347.071 176.725 346.667C177.194 346.25 177.596 345.746 177.931 345.155C178.276 344.55 178.539 343.884 178.721 343.158C178.912 342.419 179.018 341.659 179.037 340.879V340.597Z" />
        <path
            d="M201.824 339.024C201.824 340.194 201.767 341.363 201.652 342.533C200.015 342.681 198.388 342.923 196.77 343.259C195.152 343.582 193.534 343.904 191.917 344.227C192.166 345.195 192.553 345.968 193.08 346.546C193.616 347.124 194.252 347.413 194.989 347.413C195.372 347.413 195.789 347.313 196.239 347.111C196.698 346.909 197.153 346.661 197.603 346.365C198.053 346.056 198.483 345.726 198.895 345.377C199.307 345.027 199.661 344.711 199.958 344.429L199.268 353.585C198.895 353.988 198.488 354.331 198.048 354.613C197.617 354.896 197.167 355.124 196.698 355.299C196.229 355.474 195.755 355.601 195.277 355.682C194.798 355.763 194.329 355.803 193.869 355.803C192.922 355.803 192.055 355.622 191.271 355.259C190.486 354.896 189.772 354.391 189.131 353.746C188.499 353.087 187.944 352.314 187.465 351.427C186.987 350.539 186.589 349.571 186.274 348.523C185.958 347.474 185.718 346.365 185.556 345.195C185.393 344.025 185.312 342.842 185.312 341.646C185.312 340.395 185.393 339.145 185.556 337.894C185.718 336.644 185.962 335.441 186.288 334.285C186.623 333.128 187.039 332.059 187.537 331.078C188.045 330.083 188.633 329.216 189.303 328.476C189.973 327.737 190.73 327.159 191.572 326.742C192.424 326.325 193.362 326.117 194.386 326.117C195.238 326.117 196.014 326.285 196.713 326.621C197.421 326.944 198.048 327.401 198.594 327.992C199.149 328.57 199.627 329.263 200.029 330.07C200.441 330.876 200.776 331.764 201.035 332.732C201.303 333.686 201.499 334.701 201.623 335.777C201.757 336.839 201.824 337.921 201.824 339.024ZM196.081 337.975C196.081 337.599 196.052 337.215 195.995 336.826C195.937 336.422 195.841 336.059 195.707 335.737C195.583 335.414 195.415 335.152 195.205 334.95C194.994 334.735 194.731 334.627 194.415 334.627C194.032 334.627 193.692 334.775 193.396 335.071C193.108 335.353 192.86 335.716 192.649 336.16C192.438 336.59 192.266 337.061 192.132 337.572C191.998 338.083 191.898 338.553 191.831 338.983L196.081 338.419V337.975Z" />
        <path
            d="M220.075 327.044L214.819 354.311L207.697 354.875L201.236 328.537L208.042 327.649L210.799 342.977L213.469 326.439L220.075 327.044Z" />
        <path
            d="M235.697 326.48L235.554 335.031L231.275 335.273L230.183 354.391L224.124 354.835L224.153 335.716L219.874 336.039L220.046 326.52L235.697 326.48Z" />
        <path
            d="M253.603 326.923C253.172 331.656 252.803 336.368 252.497 341.061C252.191 345.74 251.899 350.452 251.621 355.198L245.734 355.803L245.993 352.697C245.801 353.007 245.576 353.275 245.318 353.504C245.069 353.733 244.801 353.921 244.514 354.069C244.226 354.203 243.93 354.304 243.623 354.371C243.317 354.425 243.025 354.445 242.747 354.432C242.096 354.418 241.484 354.243 240.909 353.907C240.335 353.558 239.809 353.101 239.33 352.536C238.851 351.958 238.421 351.292 238.038 350.539C237.655 349.773 237.329 348.973 237.061 348.139C236.803 347.292 236.602 346.432 236.458 345.558C236.324 344.684 236.257 343.837 236.257 343.017C236.257 341.807 236.271 340.557 236.3 339.266C236.338 337.962 236.401 336.658 236.487 335.353C236.573 334.049 236.683 332.759 236.817 331.481C236.961 330.204 237.138 328.98 237.348 327.811C238.516 327.891 239.689 327.965 240.866 328.033C242.044 328.1 243.216 328.12 244.384 328.093C244.164 329.263 243.944 330.439 243.724 331.622C243.513 332.792 243.322 333.975 243.149 335.172C242.977 336.355 242.838 337.545 242.733 338.741C242.628 339.938 242.575 341.148 242.575 342.372C242.575 342.654 242.585 343.057 242.604 343.582C242.623 344.106 242.671 344.624 242.747 345.135C242.834 345.645 242.958 346.096 243.121 346.486C243.293 346.862 243.532 347.05 243.839 347.05C244.202 347.05 244.528 346.835 244.815 346.405C245.102 345.961 245.356 345.37 245.576 344.63C245.796 343.891 245.983 343.037 246.136 342.069C246.299 341.101 246.433 340.093 246.538 339.044C246.653 337.982 246.744 336.913 246.811 335.837C246.878 334.762 246.926 333.753 246.955 332.812C246.993 331.858 247.017 331.004 247.026 330.251C247.045 329.498 247.055 328.913 247.055 328.496C247.055 328.228 247.05 327.965 247.041 327.71C247.031 327.454 247.017 327.192 246.998 326.923C247.62 326.95 248.237 326.97 248.85 326.984C249.463 326.997 250.08 327.004 250.702 327.004C251.181 327.004 251.66 327.004 252.138 327.004C252.626 326.991 253.115 326.964 253.603 326.923Z" />
        <path
            d="M271.178 348.139C271.178 349.255 271.03 350.217 270.733 351.023C270.446 351.83 270.058 352.516 269.57 353.08C269.082 353.645 268.517 354.109 267.876 354.472C267.244 354.822 266.583 355.097 265.894 355.299C265.205 355.501 264.511 355.635 263.812 355.702C263.123 355.769 262.477 355.803 261.874 355.803C261.28 355.803 260.663 355.769 260.021 355.702C259.389 355.648 258.758 355.548 258.126 355.4C257.494 355.252 256.872 355.057 256.259 354.815C255.647 354.559 255.067 354.243 254.522 353.867L254.493 327.891C255.029 327.582 255.599 327.307 256.202 327.065C256.805 326.809 257.417 326.601 258.04 326.439C258.671 326.265 259.298 326.137 259.921 326.056C260.543 325.962 261.146 325.915 261.73 325.915C262.41 325.915 263.094 325.976 263.783 326.097C264.482 326.218 265.152 326.419 265.794 326.702C266.435 326.984 267.033 327.354 267.588 327.811C268.144 328.254 268.627 328.806 269.039 329.465C269.46 330.123 269.785 330.89 270.015 331.764C270.254 332.638 270.374 333.646 270.374 334.789C270.374 335.542 270.297 336.247 270.144 336.906C269.991 337.565 269.771 338.157 269.484 338.681C269.197 339.205 268.847 339.656 268.436 340.032C268.024 340.395 267.56 340.664 267.043 340.839C267.665 341.067 268.23 341.404 268.737 341.847C269.254 342.291 269.69 342.829 270.044 343.461C270.408 344.093 270.685 344.805 270.877 345.598C271.078 346.392 271.178 347.239 271.178 348.139ZM263.884 336.644C263.884 336.254 263.826 335.925 263.711 335.656C263.597 335.374 263.453 335.145 263.281 334.97C263.118 334.795 262.936 334.668 262.735 334.587C262.544 334.506 262.371 334.466 262.218 334.466C262.027 334.466 261.84 334.506 261.658 334.587C261.476 334.668 261.299 334.762 261.127 334.869L261.041 339.347C261.261 339.347 261.534 339.32 261.859 339.266C262.185 339.212 262.496 339.098 262.792 338.923C263.099 338.735 263.357 338.466 263.568 338.116C263.778 337.753 263.884 337.263 263.884 336.644ZM261.845 343.219C261.567 343.219 261.299 343.259 261.041 343.34L260.983 347.938C261.127 347.978 261.266 348.018 261.4 348.059C261.543 348.086 261.682 348.099 261.816 348.099C262.017 348.099 262.237 348.072 262.477 348.018C262.716 347.951 262.941 347.83 263.151 347.655C263.362 347.467 263.534 347.218 263.668 346.909C263.812 346.6 263.884 346.19 263.884 345.679C263.884 345.168 263.812 344.751 263.668 344.429C263.534 344.106 263.367 343.857 263.166 343.682C262.965 343.494 262.745 343.373 262.505 343.319C262.266 343.252 262.046 343.219 261.845 343.219Z" />
        <path
            d="M287.691 339.024C287.691 340.194 287.633 341.363 287.519 342.533C285.882 342.681 284.254 342.923 282.637 343.259C281.019 343.582 279.401 343.904 277.783 344.227C278.032 345.195 278.42 345.968 278.946 346.546C279.482 347.124 280.119 347.413 280.856 347.413C281.239 347.413 281.655 347.313 282.105 347.111C282.565 346.909 283.019 346.661 283.469 346.365C283.919 346.056 284.35 345.726 284.762 345.377C285.173 345.027 285.527 344.711 285.824 344.429L285.135 353.585C284.762 353.988 284.355 354.331 283.915 354.613C283.484 354.896 283.034 355.124 282.565 355.299C282.096 355.474 281.622 355.601 281.143 355.682C280.665 355.763 280.196 355.803 279.736 355.803C278.788 355.803 277.922 355.622 277.137 355.259C276.352 354.896 275.639 354.391 274.998 353.746C274.366 353.087 273.811 352.314 273.332 351.427C272.853 350.539 272.456 349.571 272.14 348.523C271.824 347.474 271.585 346.365 271.422 345.195C271.259 344.025 271.178 342.842 271.178 341.646C271.178 340.395 271.259 339.145 271.422 337.894C271.585 336.644 271.829 335.441 272.155 334.285C272.49 333.128 272.906 332.059 273.404 331.078C273.911 330.083 274.5 329.216 275.17 328.476C275.84 327.737 276.596 327.159 277.439 326.742C278.291 326.325 279.229 326.117 280.253 326.117C281.105 326.117 281.88 326.285 282.579 326.621C283.288 326.944 283.915 327.401 284.46 327.992C285.015 328.57 285.494 329.263 285.896 330.07C286.308 330.876 286.643 331.764 286.901 332.732C287.169 333.686 287.365 334.701 287.49 335.777C287.624 336.839 287.691 337.921 287.691 339.024ZM281.947 337.975C281.947 337.599 281.919 337.215 281.861 336.826C281.804 336.422 281.708 336.059 281.574 335.737C281.45 335.414 281.282 335.152 281.071 334.95C280.861 334.735 280.598 334.627 280.282 334.627C279.899 334.627 279.559 334.775 279.262 335.071C278.975 335.353 278.726 335.716 278.516 336.16C278.305 336.59 278.133 337.061 277.999 337.572C277.865 338.083 277.764 338.553 277.697 338.983L281.947 338.419V337.975Z" />
    </mask>

    <defs>
        <filter id="filter0_dd_0_1" x="135.8" y="119.65" width="56.8931" height="72.5377"
            filterUnits="userSpaceOnUse" color-interpolation-filters="sRGB">
            <feFlood flood-opacity="0" result="BackgroundImageFix" />
            <feColorMatrix in="SourceAlpha" type="matrix"
                values="0 0 0 0 0 0 0 0 0 0 0 0 0 0 0 0 0 0 127 0" result="hardAlpha" />
            <feOffset dy="16" />
            <feGaussianBlur stdDeviation="0.5" />
            <feComposite in2="hardAlpha" operator="out" />
            <feColorMatrix type="matrix"
                values="0 0 0 0 0.658824 0 0 0 0 0.317647 0 0 0 0 0.0117647 0 0 0 1 0" />
            <feBlend mode="normal" in2="BackgroundImageFix" result="effect1_dropShadow_0_1" />
            <feColorMatrix in="SourceAlpha" type="matrix"
                values="0 0 0 0 0 0 0 0 0 0 0 0 0 0 0 0 0 0 127 0" result="hardAlpha" />
            <feOffset dy="16" />
            <feComposite in2="hardAlpha" operator="out" />
            <feColorMatrix type="matrix"
                values="0 0 0 0 0.658824 0 0 0 0 0.317647 0 0 0 0 0.0117647 0 0 0 1 0" />
            <feBlend mode="normal" in2="effect1_dropShadow_0_1" result="effect2_dropShadow_0_1" />
            <feBlend mode="normal" in="SourceGraphic" in2="effect2_dropShadow_0_1" result="shape" />
        </filter>
        <filter id="filter1_i_0_1" x="14.1155" y="149.419" width="275.672" height="147.2"
            filterUnits="userSpaceOnUse" color-interpolation-filters="sRGB">
            <feFlood flood-opacity="0" result="BackgroundImageFix" />
            <feBlend mode="normal" in="SourceGraphic" in2="BackgroundImageFix" result="shape" />
            <feColorMatrix in="SourceAlpha" type="matrix"
                values="0 0 0 0 0 0 0 0 0 0 0 0 0 0 0 0 0 0 127 0" result="hardAlpha" />
            <feOffset dx="3.2" dy="3.2" />
            <feGaussianBlur stdDeviation="2" />
            <feComposite in2="hardAlpha" operator="arithmetic" k2="-1" k3="1" />
            <feColorMatrix type="matrix"
                values="0 0 0 0 0.901961 0 0 0 0 0.588235 0 0 0 0 0.207843 0 0 0 1 0" />
            <feBlend mode="normal" in2="shape" result="effect1_innerShadow_0_1" />
        </filter>
        <filter id="filter2_d_0_1" x="23.5417" y="158.619" width="179.805" height="129.09"
            filterUnits="userSpaceOnUse" color-interpolation-filters="sRGB">
            <feFlood flood-opacity="0" result="BackgroundImageFix" />
            <feColorMatrix in="SourceAlpha" type="matrix"
                values="0 0 0 0 0 0 0 0 0 0 0 0 0 0 0 0 0 0 127 0" result="hardAlpha" />
            <feOffset dx="3.5" dy="3.5" />
            <feComposite in2="hardAlpha" operator="out" />
            <feColorMatrix type="matrix"
                values="0 0 0 0 0.901961 0 0 0 0 0.588235 0 0 0 0 0.207843 0 0 0 1 0" />
            <feBlend mode="normal" in2="BackgroundImageFix" result="effect1_dropShadow_0_1" />
            <feBlend mode="normal" in="SourceGraphic" in2="effect1_dropShadow_0_1" result="shape" />
        </filter>
        <filter id="filter3_d_0_1" x="209.043" y="157.419" width="71.1179" height="131"
            filterUnits="userSpaceOnUse" color-interpolation-filters="sRGB">
            <feFlood flood-opacity="0" result="BackgroundImageFix" />
            <feColorMatrix in="SourceAlpha" type="matrix"
                values="0 0 0 0 0 0 0 0 0 0 0 0 0 0 0 0 0 0 127 0" result="hardAlpha" />
            <feOffset dx="3" dy="3" />
            <feComposite in2="hardAlpha" operator="out" />
            <feColorMatrix type="matrix"
                values="0 0 0 0 0.901961 0 0 0 0 0.588235 0 0 0 0 0.207843 0 0 0 1 0" />
            <feBlend mode="normal" in2="BackgroundImageFix" result="effect1_dropShadow_0_1" />
            <feBlend mode="normal" in="SourceGraphic" in2="effect1_dropShadow_0_1" result="shape" />
        </filter>
        <filter id="filter4_ddi_0_1" x="227.879" y="169.009" width="31.4358" height="28.2"
            filterUnits="userSpaceOnUse" color-interpolation-filters="sRGB">
            <feFlood flood-opacity="0" result="BackgroundImageFix" />
            <feColorMatrix in="SourceAlpha" type="matrix"
                values="0 0 0 0 0 0 0 0 0 0 0 0 0 0 0 0 0 0 127 0" result="hardAlpha" />
            <feOffset dx="-2" />
            <feComposite in2="hardAlpha" operator="out" />
            <feColorMatrix type="matrix"
                values="0 0 0 0 0.317647 0 0 0 0 0.215686 0 0 0 0 0.129412 0 0 0 1 0" />
            <feBlend mode="normal" in2="BackgroundImageFix" result="effect1_dropShadow_0_1" />
            <feColorMatrix in="SourceAlpha" type="matrix"
                values="0 0 0 0 0 0 0 0 0 0 0 0 0 0 0 0 0 0 127 0" result="hardAlpha" />
            <feOffset dx="2" dy="2" />
            <feGaussianBlur stdDeviation="0.5" />
            <feComposite in2="hardAlpha" operator="out" />
            <feColorMatrix type="matrix"
                values="0 0 0 0 0.705882 0 0 0 0 0.584314 0 0 0 0 0.466667 0 0 0 1 0" />
            <feBlend mode="normal" in2="effect1_dropShadow_0_1" result="effect2_dropShadow_0_1" />
            <feBlend mode="normal" in="SourceGraphic" in2="effect2_dropShadow_0_1" result="shape" />
            <feColorMatrix in="SourceAlpha" type="matrix"
                values="0 0 0 0 0 0 0 0 0 0 0 0 0 0 0 0 0 0 127 0" result="hardAlpha" />
            <feOffset dx="-2" />
            <feGaussianBlur stdDeviation="2" />
            <feComposite in2="hardAlpha" operator="arithmetic" k2="-1" k3="1" />
            <feColorMatrix type="matrix" values="0 0 0 0 0 0 0 0 0 0 0 0 0 0 0 0 0 0 1 0" />
            <feBlend mode="normal" in2="shape" result="effect3_innerShadow_0_1" />
        </filter>
        <filter id="filter5_ddi_0_1" x="227.879" y="206.209" width="31.4358" height="28.2"
            filterUnits="userSpaceOnUse" color-interpolation-filters="sRGB">
            <feFlood flood-opacity="0" result="BackgroundImageFix" />
            <feColorMatrix in="SourceAlpha" type="matrix"
                values="0 0 0 0 0 0 0 0 0 0 0 0 0 0 0 0 0 0 127 0" result="hardAlpha" />
            <feOffset dx="-2" />
            <feComposite in2="hardAlpha" operator="out" />
            <feColorMatrix type="matrix"
                values="0 0 0 0 0.317647 0 0 0 0 0.215686 0 0 0 0 0.129412 0 0 0 1 0" />
            <feBlend mode="normal" in2="BackgroundImageFix" result="effect1_dropShadow_0_1" />
            <feColorMatrix in="SourceAlpha" type="matrix"
                values="0 0 0 0 0 0 0 0 0 0 0 0 0 0 0 0 0 0 127 0" result="hardAlpha" />
            <feOffset dx="2" dy="2" />
            <feGaussianBlur stdDeviation="0.5" />
            <feComposite in2="hardAlpha" operator="out" />
            <feColorMatrix type="matrix"
                values="0 0 0 0 0.705882 0 0 0 0 0.584314 0 0 0 0 0.466667 0 0 0 1 0" />
            <feBlend mode="normal" in2="effect1_dropShadow_0_1" result="effect2_dropShadow_0_1" />
            <feBlend mode="normal" in="SourceGraphic" in2="effect2_dropShadow_0_1" result="shape" />
            <feColorMatrix in="SourceAlpha" type="matrix"
                values="0 0 0 0 0 0 0 0 0 0 0 0 0 0 0 0 0 0 127 0" result="hardAlpha" />
            <feOffset dx="-2" />
            <feGaussianBlur stdDeviation="2" />
            <feComposite in2="hardAlpha" operator="arithmetic" k2="-1" k3="1" />
            <feColorMatrix type="matrix" values="0 0 0 0 0 0 0 0 0 0 0 0 0 0 0 0 0 0 1 0" />
            <feBlend mode="normal" in2="shape" result="effect3_innerShadow_0_1" />
        </filter>
        <filter id="filter6_d_0_1" x="223.478" y="243.419" width="12.658" height="12.64"
            filterUnits="userSpaceOnUse" color-interpolation-filters="sRGB">
            <feFlood flood-opacity="0" result="BackgroundImageFix" />
            <feColorMatrix in="SourceAlpha" type="matrix"
                values="0 0 0 0 0 0 0 0 0 0 0 0 0 0 0 0 0 0 127 0" result="hardAlpha" />
            <feOffset dx="1.25" dy="1.25" />
            <feGaussianBlur stdDeviation="0.5" />
            <feComposite in2="hardAlpha" operator="out" />
            <feColorMatrix type="matrix"
                values="0 0 0 0 0.705882 0 0 0 0 0.584314 0 0 0 0 0.466667 0 0 0 1 0" />
            <feBlend mode="normal" in2="BackgroundImageFix" result="effect1_dropShadow_0_1" />
            <feBlend mode="normal" in="SourceGraphic" in2="effect1_dropShadow_0_1" result="shape" />
        </filter>
        <filter id="filter7_d_0_1" x="237.893" y="243.419" width="12.658" height="12.64"
            filterUnits="userSpaceOnUse" color-interpolation-filters="sRGB">
            <feFlood flood-opacity="0" result="BackgroundImageFix" />
            <feColorMatrix in="SourceAlpha" type="matrix"
                values="0 0 0 0 0 0 0 0 0 0 0 0 0 0 0 0 0 0 127 0" result="hardAlpha" />
            <feOffset dx="1.25" dy="1.25" />
            <feGaussianBlur stdDeviation="0.5" />
            <feComposite in2="hardAlpha" operator="out" />
            <feColorMatrix type="matrix"
                values="0 0 0 0 0.705882 0 0 0 0 0.584314 0 0 0 0 0.466667 0 0 0 1 0" />
            <feBlend mode="normal" in2="BackgroundImageFix" result="effect1_dropShadow_0_1" />
            <feBlend mode="normal" in="SourceGraphic" in2="effect1_dropShadow_0_1" result="shape" />
        </filter>
        <filter id="filter8_d_0_1" x="252.308" y="243.419" width="12.658" height="12.64"
            filterUnits="userSpaceOnUse" color-interpolation-filters="sRGB">
            <feFlood flood-opacity="0" result="BackgroundImageFix" />
            <feColorMatrix in="SourceAlpha" type="matrix"
                values="0 0 0 0 0 0 0 0 0 0 0 0 0 0 0 0 0 0 127 0" result="hardAlpha" />
            <feOffset dx="1.25" dy="1.25" />
            <feGaussianBlur stdDeviation="0.5" />
            <feComposite in2="hardAlpha" operator="out" />
            <feColorMatrix type="matrix"
                values="0 0 0 0 0.705882 0 0 0 0 0.584314 0 0 0 0 0.466667 0 0 0 1 0" />
            <feBlend mode="normal" in2="BackgroundImageFix" result="effect1_dropShadow_0_1" />
            <feBlend mode="normal" in="SourceGraphic" in2="effect1_dropShadow_0_1" result="shape" />
        </filter>
        <filter id="filter9_i_0_1" x="0.313477" y="307.937" width="302.092" height="68.8735"
            filterUnits="userSpaceOnUse" color-interpolation-filters="sRGB">
            <feFlood flood-opacity="0" result="BackgroundImageFix" />
            <feBlend mode="normal" in="SourceGraphic" in2="BackgroundImageFix" result="shape" />
            <feColorMatrix in="SourceAlpha" type="matrix"
                values="0 0 0 0 0 0 0 0 0 0 0 0 0 0 0 0 0 0 127 0" result="hardAlpha" />
            <feOffset dy="4" />
            <feGaussianBlur stdDeviation="2" />
            <feComposite in2="hardAlpha" operator="arithmetic" k2="-1" k3="1" />
            <feColorMatrix type="matrix" values="0 0 0 0 0 0 0 0 0 0 0 0 0 0 0 0 0 0 0.25 0" />
            <feBlend mode="normal" in2="shape" result="effect1_innerShadow_0_1" />
        </filter>
        <linearGradient id="paint0_linear_0_1" x1="88.1136" y1="47.4187" x2="130.738" y2="124.449"
            gradientUnits="userSpaceOnUse">
            <stop stop-color="#171717" />
            <stop offset="0.25" stop-color="#171717" />
            <stop offset="0.5" stop-color="#353535" />
            <stop offset="0.75" stop-color="#353535" />
            <stop offset="1" stop-color="#171717" />
        </linearGradient>
        <linearGradient id="paint1_linear_0_1" x1="193.597" y1="43.0374" x2="211.21" y2="104.567"
            gradientUnits="userSpaceOnUse">
            <stop stop-color="#171717" />
            <stop offset="0.25" stop-color="#171717" />
            <stop offset="0.5" stop-color="#353535" />
            <stop offset="0.75" stop-color="#353535" />
            <stop offset="1" stop-color="#171717" />
        </linearGradient>
        <linearGradient id="paint2_linear_0_1" x1="197.886" y1="221.412" x2="25.5879" y2="221.412"
            gradientUnits="userSpaceOnUse">
            <stop stop-color="#fafafa" />
            <stop offset="0.142857142857" stop-color="#ffffff" />
            <stop offset="0.142857142857" stop-color="#303030" />
            <stop offset="0.285714285714" stop-color="#3a3a3a" />
            <stop offset="0.285714285714" stop-color="#00f5ce" />
            <stop offset="0.428571428571" stop-color="#0affd9" />
            <stop offset="0.428571428571" stop-color="#626262" />
            <stop offset="0.571428571429" stop-color="#6c6c6c" />
            <stop offset="0.571428571429" stop-color="#f500f4" />
            <stop offset="0.714285714286" stop-color="#ff0afe" />
            <stop offset="0.714285714286" stop-color="#303030" />
            <stop offset="0.857142857143" stop-color="#3a3a3a" />
            <stop offset="0.857142857143" stop-color="#002bb2" />
            <stop offset="1" stop-color="#002fc6" />
        </linearGradient>
        <linearGradient id="paint3_linear_0_1" x1="197.886" y1="221.412" x2="25.5879" y2="221.412"
            gradientUnits="userSpaceOnUse">
            <stop stop-color="#303030" />
            <stop offset="0.166666666667" stop-color="#3a3a3a" />
            <stop offset="0.166666666667" stop-color="#888888" />
            <stop offset="0.333333333333" stop-color="#929292" />
            <stop offset="0.333333333333" stop-color="#626262" />
            <stop offset="0.50" stop-color="#6c6c6c" />
            <stop offset="0.50" stop-color="#001761" />
            <stop offset="0.666666666667" stop-color="#001b75" />
            <stop offset="0.666666666667" stop-color="#fafafa" />
            <stop offset="0.833333333333" stop-color="#ffffff" />
            <stop offset="0.833333333333" stop-color="#005857" />
            <stop offset="1" stop-color="#006c6b" />
        </linearGradient>
        <linearGradient id="paint4_linear_0_1" x1="197.886" y1="202.246" x2="25.5879" y2="202.246"
            gradientUnits="userSpaceOnUse">
            <stop stop-color="#002BB2" />
            <stop offset="0.142857142857" stop-color="#002FC6" />
            <stop offset="0.142857142857" stop-color="#D90012" />
            <stop offset="0.285714285714" stop-color="#ED0014" />
            <stop offset="0.285714285714" stop-color="#F500F4" />
            <stop offset="0.428571428571" stop-color="#FF0AFE" />
            <stop offset="0.428571428571" stop-color="#0ED600" />
            <stop offset="0.571428571429" stop-color="#10EA00" />
            <stop offset="0.571428571429" stop-color="#00F5CE" />
            <stop offset="0.714285714286" stop-color="#0AFFD9" />
            <stop offset="0.714285714286" stop-color="#F5DC00" />
            <stop offset="0.857142857143" stop-color="#FFE60A" />
            <stop offset="0.857142857143" stop-color="#FAFAFA" />
            <stop offset="1" stop-color="white" />
        </linearGradient>


        <linearGradient id="paint5_linear_0_1" x1="225.233" y1="346.277" x2="209.915" y2="284.259"
            gradientUnits="userSpaceOnUse">
            <stop />
            <stop offset="0.42" stop-color="#303030" />
        </linearGradient>
    </defs>
</svg>
    